<?xml version="1.0" encoding="UTF-8" standalone="no"?>
<!DOCTYPE svg PUBLIC "-//W3C//DTD SVG 1.1//EN"
 "http://www.w3.org/Graphics/SVG/1.1/DTD/svg11.dtd">
<!-- Generated by graphviz version 2.43.0 (0)
 -->
<!-- Title: /home/runner/work/prisms_phasefield/prisms_phasefield/include/prismspf/solvers/concurrent_solver.h Pages: 1 -->
<svg width="1000pt" height="313pt"
 viewBox="0.00 0.00 999.50 313.00" xmlns="http://www.w3.org/2000/svg" xmlns:xlink="http://www.w3.org/1999/xlink">
<g id="graph0" class="graph" transform="scale(1 1) rotate(0) translate(4 309)">
<title>/home/runner/work/prisms_phasefield/prisms_phasefield/include/prismspf/solvers/concurrent_solver.h</title>
<!-- Node1 -->
<g id="Node000001" class="node">
<title>Node1</title>
<g id="a_Node000001"><a xlink:title=" ">
<polygon fill="#999999" stroke="#666666" points="635,-305 441,-305 441,-253 635,-253 635,-305"/>
<text text-anchor="start" x="449" y="-293" font-family="Helvetica,sans-Serif" font-size="10.00">/home/runner/work/prisms</text>
<text text-anchor="start" x="449" y="-282" font-family="Helvetica,sans-Serif" font-size="10.00">_phasefield/prisms_phasefield</text>
<text text-anchor="start" x="449" y="-271" font-family="Helvetica,sans-Serif" font-size="10.00">/include/prismspf/solvers/concurrent</text>
<text text-anchor="middle" x="538" y="-260" font-family="Helvetica,sans-Serif" font-size="10.00">_solver.h</text>
</a>
</g>
</g>
<!-- Node2 -->
<g id="Node000002" class="node">
<title>Node2</title>
<g id="a_Node000002"><a xlink:href="concurrent__constant__solver_8h.html" target="_top" xlink:title=" ">
<polygon fill="white" stroke="#666666" points="760,-217 566,-217 566,-165 760,-165 760,-217"/>
<text text-anchor="start" x="574" y="-205" font-family="Helvetica,sans-Serif" font-size="10.00">/home/runner/work/prisms</text>
<text text-anchor="start" x="574" y="-194" font-family="Helvetica,sans-Serif" font-size="10.00">_phasefield/prisms_phasefield</text>
<text text-anchor="start" x="574" y="-183" font-family="Helvetica,sans-Serif" font-size="10.00">/include/prismspf/solvers/concurrent</text>
<text text-anchor="middle" x="663" y="-172" font-family="Helvetica,sans-Serif" font-size="10.00">_constant_solver.h</text>
</a>
</g>
</g>
<!-- Node1&#45;&gt;Node2 -->
<g id="edge1_Node000001_Node000002" class="edge">
<title>Node1&#45;&gt;Node2</title>
<g id="a_edge1_Node000001_Node000002"><a xlink:title=" ">
<path fill="none" stroke="#63b8ff" d="M583.11,-246.96C597.28,-237.22 612.73,-226.58 626.25,-217.29"/>
<polygon fill="#63b8ff" stroke="#63b8ff" points="580.75,-244.34 574.49,-252.89 584.71,-250.11 580.75,-244.34"/>
</a>
</g>
</g>
<!-- Node6 -->
<g id="Node000006" class="node">
<title>Node6</title>
<g id="a_Node000006"><a xlink:href="concurrent__constant__solver_8cc.html" target="_top" xlink:title=" ">
<polygon fill="white" stroke="#666666" points="867,-129 693,-129 693,-77 867,-77 867,-129"/>
<text text-anchor="start" x="701" y="-117" font-family="Helvetica,sans-Serif" font-size="10.00">/home/runner/work/prisms</text>
<text text-anchor="start" x="701" y="-106" font-family="Helvetica,sans-Serif" font-size="10.00">_phasefield/prisms_phasefield</text>
<text text-anchor="start" x="701" y="-95" font-family="Helvetica,sans-Serif" font-size="10.00">/src/solvers/concurrent_constant</text>
<text text-anchor="middle" x="780" y="-84" font-family="Helvetica,sans-Serif" font-size="10.00">_solver.cc</text>
</a>
</g>
</g>
<!-- Node1&#45;&gt;Node6 -->
<g id="edge15_Node000001_Node000006" class="edge">
<title>Node1&#45;&gt;Node6</title>
<g id="a_edge15_Node000001_Node000006"><a xlink:title=" ">
<path fill="none" stroke="#63b8ff" d="M645.32,-261.75C697.41,-251.57 752.31,-236.63 769,-217 789.56,-192.83 788.61,-154.37 785.07,-129.15"/>
<polygon fill="#63b8ff" stroke="#63b8ff" points="644.46,-258.36 635.29,-263.66 645.77,-265.23 644.46,-258.36"/>
</a>
</g>
</g>
<!-- Node7 -->
<g id="Node000007" class="node">
<title>Node7</title>
<g id="a_Node000007"><a xlink:href="concurrent__explicit__postprocess__solver_8h.html" target="_top" xlink:title=" ">
<polygon fill="white" stroke="#666666" points="298,-217 104,-217 104,-165 298,-165 298,-217"/>
<text text-anchor="start" x="112" y="-205" font-family="Helvetica,sans-Serif" font-size="10.00">/home/runner/work/prisms</text>
<text text-anchor="start" x="112" y="-194" font-family="Helvetica,sans-Serif" font-size="10.00">_phasefield/prisms_phasefield</text>
<text text-anchor="start" x="112" y="-183" font-family="Helvetica,sans-Serif" font-size="10.00">/include/prismspf/solvers/concurrent</text>
<text text-anchor="middle" x="201" y="-172" font-family="Helvetica,sans-Serif" font-size="10.00">_explicit_postprocess_solver.h</text>
</a>
</g>
</g>
<!-- Node1&#45;&gt;Node7 -->
<g id="edge7_Node000001_Node000007" class="edge">
<title>Node1&#45;&gt;Node7</title>
<g id="a_edge7_Node000001_Node000007"><a xlink:title=" ">
<path fill="none" stroke="#63b8ff" d="M431.14,-250.73C388.53,-239.86 339.82,-227.42 298.21,-216.81"/>
<polygon fill="#63b8ff" stroke="#63b8ff" points="430.42,-254.16 440.98,-253.24 432.15,-247.38 430.42,-254.16"/>
</a>
</g>
</g>
<!-- Node8 -->
<g id="Node000008" class="node">
<title>Node8</title>
<g id="a_Node000008"><a xlink:href="concurrent__explicit__postprocess__solver_8cc.html" target="_top" xlink:title=" ">
<polygon fill="white" stroke="#666666" points="168,-129 0,-129 0,-77 168,-77 168,-129"/>
<text text-anchor="start" x="8" y="-117" font-family="Helvetica,sans-Serif" font-size="10.00">/home/runner/work/prisms</text>
<text text-anchor="start" x="8" y="-106" font-family="Helvetica,sans-Serif" font-size="10.00">_phasefield/prisms_phasefield</text>
<text text-anchor="start" x="8" y="-95" font-family="Helvetica,sans-Serif" font-size="10.00">/src/solvers/concurrent_explicit</text>
<text text-anchor="middle" x="84" y="-84" font-family="Helvetica,sans-Serif" font-size="10.00">_postprocess_solver.cc</text>
</a>
</g>
</g>
<!-- Node1&#45;&gt;Node8 -->
<g id="edge16_Node000001_Node000008" class="edge">
<title>Node1&#45;&gt;Node8</title>
<g id="a_edge16_Node000001_Node000008"><a xlink:title=" ">
<path fill="none" stroke="#63b8ff" d="M430.9,-277.96C314.77,-275.46 139.92,-263.74 95,-217 72.87,-193.98 74.35,-154.84 78.41,-129.21"/>
<polygon fill="#63b8ff" stroke="#63b8ff" points="430.84,-281.46 440.9,-278.15 430.97,-274.46 430.84,-281.46"/>
</a>
</g>
</g>
<!-- Node9 -->
<g id="Node000009" class="node">
<title>Node9</title>
<g id="a_Node000009"><a xlink:href="concurrent__explicit__solver_8h.html" target="_top" xlink:title=" ">
<polygon fill="white" stroke="#666666" points="510,-217 316,-217 316,-165 510,-165 510,-217"/>
<text text-anchor="start" x="324" y="-205" font-family="Helvetica,sans-Serif" font-size="10.00">/home/runner/work/prisms</text>
<text text-anchor="start" x="324" y="-194" font-family="Helvetica,sans-Serif" font-size="10.00">_phasefield/prisms_phasefield</text>
<text text-anchor="start" x="324" y="-183" font-family="Helvetica,sans-Serif" font-size="10.00">/include/prismspf/solvers/concurrent</text>
<text text-anchor="middle" x="413" y="-172" font-family="Helvetica,sans-Serif" font-size="10.00">_explicit_solver.h</text>
</a>
</g>
</g>
<!-- Node1&#45;&gt;Node9 -->
<g id="edge11_Node000001_Node000009" class="edge">
<title>Node1&#45;&gt;Node9</title>
<g id="a_edge11_Node000001_Node000009"><a xlink:title=" ">
<path fill="none" stroke="#63b8ff" d="M492.89,-246.96C478.72,-237.22 463.27,-226.58 449.75,-217.29"/>
<polygon fill="#63b8ff" stroke="#63b8ff" points="491.29,-250.11 501.51,-252.89 495.25,-244.34 491.29,-250.11"/>
</a>
</g>
</g>
<!-- Node10 -->
<g id="Node000010" class="node">
<title>Node10</title>
<g id="a_Node000010"><a xlink:href="concurrent__explicit__solver_8cc.html" target="_top" xlink:title=" ">
<polygon fill="white" stroke="#666666" points="621,-129 453,-129 453,-77 621,-77 621,-129"/>
<text text-anchor="start" x="461" y="-117" font-family="Helvetica,sans-Serif" font-size="10.00">/home/runner/work/prisms</text>
<text text-anchor="start" x="461" y="-106" font-family="Helvetica,sans-Serif" font-size="10.00">_phasefield/prisms_phasefield</text>
<text text-anchor="start" x="461" y="-95" font-family="Helvetica,sans-Serif" font-size="10.00">/src/solvers/concurrent_explicit</text>
<text text-anchor="middle" x="537" y="-84" font-family="Helvetica,sans-Serif" font-size="10.00">_solver.cc</text>
</a>
</g>
</g>
<!-- Node1&#45;&gt;Node10 -->
<g id="edge17_Node000001_Node000010" class="edge">
<title>Node1&#45;&gt;Node10</title>
<g id="a_edge17_Node000001_Node000010"><a xlink:title=" ">
<path fill="none" stroke="#63b8ff" d="M537.8,-242.35C537.6,-208.6 537.31,-158.79 537.14,-129.05"/>
<polygon fill="#63b8ff" stroke="#63b8ff" points="534.3,-242.72 537.85,-252.7 541.3,-242.68 534.3,-242.72"/>
</a>
</g>
</g>
<!-- Node11 -->
<g id="Node000011" class="node">
<title>Node11</title>
<g id="a_Node000011"><a xlink:href="concurrent__solver_8cc.html" target="_top" xlink:title=" ">
<polygon fill="white" stroke="#666666" points="991.5,-211.5 816.5,-211.5 816.5,-170.5 991.5,-170.5 991.5,-211.5"/>
<text text-anchor="start" x="824.5" y="-199.5" font-family="Helvetica,sans-Serif" font-size="10.00">/home/runner/work/prisms</text>
<text text-anchor="start" x="824.5" y="-188.5" font-family="Helvetica,sans-Serif" font-size="10.00">_phasefield/prisms_phasefield</text>
<text text-anchor="middle" x="904" y="-177.5" font-family="Helvetica,sans-Serif" font-size="10.00">/src/solvers/concurrent_solver.cc</text>
</a>
</g>
</g>
<!-- Node1&#45;&gt;Node11 -->
<g id="edge18_Node000001_Node000011" class="edge">
<title>Node1&#45;&gt;Node11</title>
<g id="a_edge18_Node000001_Node000011"><a xlink:title=" ">
<path fill="none" stroke="#63b8ff" d="M645.03,-253.61C693.06,-242.58 750.41,-229.28 802,-217 809.36,-215.25 817.02,-213.41 824.68,-211.55"/>
<polygon fill="#63b8ff" stroke="#63b8ff" points="644.21,-250.21 635.24,-255.86 645.77,-257.03 644.21,-250.21"/>
</a>
</g>
</g>
<!-- Node3 -->
<g id="Node000003" class="node">
<title>Node3</title>
<g id="a_Node000003"><a xlink:href="solver__handler_8h.html" target="_top" xlink:title=" ">
<polygon fill="white" stroke="#666666" points="396,-129 232,-129 232,-77 396,-77 396,-129"/>
<text text-anchor="start" x="240" y="-117" font-family="Helvetica,sans-Serif" font-size="10.00">/home/runner/work/prisms</text>
<text text-anchor="start" x="240" y="-106" font-family="Helvetica,sans-Serif" font-size="10.00">_phasefield/prisms_phasefield</text>
<text text-anchor="start" x="240" y="-95" font-family="Helvetica,sans-Serif" font-size="10.00">/include/prismspf/core/solver</text>
<text text-anchor="middle" x="314" y="-84" font-family="Helvetica,sans-Serif" font-size="10.00">_handler.h</text>
</a>
</g>
</g>
<!-- Node2&#45;&gt;Node3 -->
<g id="edge2_Node000002_Node000003" class="edge">
<title>Node2&#45;&gt;Node3</title>
<g id="a_edge2_Node000002_Node000003"><a xlink:title=" ">
<path fill="none" stroke="#63b8ff" d="M555.97,-163.63C504.57,-150.96 443.94,-136.02 396.23,-124.26"/>
<polygon fill="#63b8ff" stroke="#63b8ff" points="555.24,-167.05 565.78,-166.04 556.91,-160.25 555.24,-167.05"/>
</a>
</g>
</g>
<!-- Node4 -->
<g id="Node000004" class="node">
<title>Node4</title>
<g id="a_Node000004"><a xlink:href="pde__problem_8cc.html" target="_top" xlink:title=" ">
<polygon fill="white" stroke="#666666" points="506,-41 342,-41 342,0 506,0 506,-41"/>
<text text-anchor="start" x="350" y="-29" font-family="Helvetica,sans-Serif" font-size="10.00">/home/runner/work/prisms</text>
<text text-anchor="start" x="350" y="-18" font-family="Helvetica,sans-Serif" font-size="10.00">_phasefield/prisms_phasefield</text>
<text text-anchor="middle" x="424" y="-7" font-family="Helvetica,sans-Serif" font-size="10.00">/src/core/pde_problem.cc</text>
</a>
</g>
</g>
<!-- Node2&#45;&gt;Node4 -->
<g id="edge5_Node000002_Node000004" class="edge">
<title>Node2&#45;&gt;Node4</title>
<g id="a_edge5_Node000002_Node000004"><a xlink:title=" ">
<path fill="none" stroke="#63b8ff" d="M661.52,-154.68C658.59,-129.74 650.7,-97.27 630,-77 597.32,-45 548.23,-30.95 506.16,-24.99"/>
<polygon fill="#63b8ff" stroke="#63b8ff" points="658.05,-155.23 662.49,-164.85 665.02,-154.56 658.05,-155.23"/>
</a>
</g>
</g>
<!-- Node2&#45;&gt;Node6 -->
<g id="edge6_Node000002_Node000006" class="edge">
<title>Node2&#45;&gt;Node6</title>
<g id="a_edge6_Node000002_Node000006"><a xlink:title=" ">
<path fill="none" stroke="#63b8ff" d="M705.23,-158.96C718.48,-149.22 732.95,-138.58 745.6,-129.29"/>
<polygon fill="#63b8ff" stroke="#63b8ff" points="703.14,-156.15 697.16,-164.89 707.29,-161.79 703.14,-156.15"/>
</a>
</g>
</g>
<!-- Node3&#45;&gt;Node4 -->
<g id="edge3_Node000003_Node000004" class="edge">
<title>Node3&#45;&gt;Node4</title>
<g id="a_edge3_Node000003_Node000004"><a xlink:title=" ">
<path fill="none" stroke="#63b8ff" d="M356.54,-70.87C370.2,-60.87 384.94,-50.08 397.15,-41.15"/>
<polygon fill="#63b8ff" stroke="#63b8ff" points="354.2,-68.24 348.2,-76.97 358.34,-73.89 354.2,-68.24"/>
</a>
</g>
</g>
<!-- Node5 -->
<g id="Node000005" class="node">
<title>Node5</title>
<g id="a_Node000005"><a xlink:href="solver__handler_8cc.html" target="_top" xlink:title=" ">
<polygon fill="white" stroke="#666666" points="324,-41 160,-41 160,0 324,0 324,-41"/>
<text text-anchor="start" x="168" y="-29" font-family="Helvetica,sans-Serif" font-size="10.00">/home/runner/work/prisms</text>
<text text-anchor="start" x="168" y="-18" font-family="Helvetica,sans-Serif" font-size="10.00">_phasefield/prisms_phasefield</text>
<text text-anchor="middle" x="242" y="-7" font-family="Helvetica,sans-Serif" font-size="10.00">/src/core/solver_handler.cc</text>
</a>
</g>
</g>
<!-- Node3&#45;&gt;Node5 -->
<g id="edge4_Node000003_Node000005" class="edge">
<title>Node3&#45;&gt;Node5</title>
<g id="a_edge4_Node000003_Node000005"><a xlink:title=" ">
<path fill="none" stroke="#63b8ff" d="M284.89,-69.45C276.31,-59.86 267.19,-49.66 259.57,-41.15"/>
<polygon fill="#63b8ff" stroke="#63b8ff" points="282.34,-71.85 291.61,-76.97 287.56,-67.18 282.34,-71.85"/>
</a>
</g>
</g>
<!-- Node7&#45;&gt;Node3 -->
<g id="edge8_Node000007_Node000003" class="edge">
<title>Node7&#45;&gt;Node3</title>
<g id="a_edge8_Node000007_Node000003"><a xlink:title=" ">
<path fill="none" stroke="#63b8ff" d="M242.15,-158.69C254.85,-149.02 268.68,-138.49 280.78,-129.29"/>
<polygon fill="#63b8ff" stroke="#63b8ff" points="239.83,-156.05 233.99,-164.89 244.07,-161.62 239.83,-156.05"/>
</a>
</g>
</g>
<!-- Node7&#45;&gt;Node4 -->
<g id="edge9_Node000007_Node000004" class="edge">
<title>Node7&#45;&gt;Node4</title>
<g id="a_edge9_Node000007_Node000004"><a xlink:title=" ">
<path fill="none" stroke="#63b8ff" d="M198.74,-154.53C199.13,-129.8 203.87,-97.66 223,-77 231.55,-67.77 290.07,-52.2 341.78,-39.9"/>
<polygon fill="#63b8ff" stroke="#63b8ff" points="195.24,-154.64 198.81,-164.62 202.24,-154.6 195.24,-154.64"/>
</a>
</g>
</g>
<!-- Node7&#45;&gt;Node8 -->
<g id="edge10_Node000007_Node000008" class="edge">
<title>Node7&#45;&gt;Node8</title>
<g id="a_edge10_Node000007_Node000008"><a xlink:title=" ">
<path fill="none" stroke="#63b8ff" d="M158.77,-158.96C145.52,-149.22 131.05,-138.58 118.4,-129.29"/>
<polygon fill="#63b8ff" stroke="#63b8ff" points="156.71,-161.79 166.84,-164.89 160.86,-156.15 156.71,-161.79"/>
</a>
</g>
</g>
<!-- Node9&#45;&gt;Node3 -->
<g id="edge12_Node000009_Node000003" class="edge">
<title>Node9&#45;&gt;Node3</title>
<g id="a_edge12_Node000009_Node000003"><a xlink:title=" ">
<path fill="none" stroke="#63b8ff" d="M376.32,-158.13C365.36,-148.62 353.51,-138.32 343.11,-129.29"/>
<polygon fill="#63b8ff" stroke="#63b8ff" points="374.25,-160.98 384.1,-164.89 378.84,-155.69 374.25,-160.98"/>
</a>
</g>
</g>
<!-- Node9&#45;&gt;Node4 -->
<g id="edge13_Node000009_Node000004" class="edge">
<title>Node9&#45;&gt;Node4</title>
<g id="a_edge13_Node000009_Node000004"><a xlink:title=" ">
<path fill="none" stroke="#63b8ff" d="M415.31,-154.65C417.56,-120.13 420.91,-68.88 422.72,-41.11"/>
<polygon fill="#63b8ff" stroke="#63b8ff" points="411.81,-154.57 414.65,-164.77 418.79,-155.02 411.81,-154.57"/>
</a>
</g>
</g>
<!-- Node9&#45;&gt;Node10 -->
<g id="edge14_Node000009_Node000010" class="edge">
<title>Node9&#45;&gt;Node10</title>
<g id="a_edge14_Node000009_Node000010"><a xlink:title=" ">
<path fill="none" stroke="#63b8ff" d="M457.75,-158.96C471.8,-149.22 487.14,-138.58 500.54,-129.29"/>
<polygon fill="#63b8ff" stroke="#63b8ff" points="455.42,-156.32 449.2,-164.89 459.41,-162.07 455.42,-156.32"/>
</a>
</g>
</g>
</g>
</svg>
