<?xml version="1.0" encoding="UTF-8" standalone="no"?>
<!DOCTYPE svg PUBLIC "-//W3C//DTD SVG 1.1//EN"
 "http://www.w3.org/Graphics/SVG/1.1/DTD/svg11.dtd">
<!-- Generated by graphviz version 2.43.0 (0)
 -->
<!-- Title: /home/runner/work/prisms_phasefield/prisms_phasefield/include/prismspf/core/invm_handler.h Pages: 1 -->
<svg width="2154pt" height="412pt"
 viewBox="0.00 0.00 2153.50 412.00" xmlns="http://www.w3.org/2000/svg" xmlns:xlink="http://www.w3.org/1999/xlink">
<g id="graph0" class="graph" transform="scale(1 1) rotate(0) translate(4 408)">
<title>/home/runner/work/prisms_phasefield/prisms_phasefield/include/prismspf/core/invm_handler.h</title>
<!-- Node1 -->
<g id="Node000001" class="node">
<title>Node1</title>
<g id="a_Node000001"><a xlink:title=" ">
<polygon fill="#999999" stroke="#666666" points="557,-404 393,-404 393,-352 557,-352 557,-404"/>
<text text-anchor="start" x="401" y="-392" font-family="Helvetica,sans-Serif" font-size="10.00">/home/runner/work/prisms</text>
<text text-anchor="start" x="401" y="-381" font-family="Helvetica,sans-Serif" font-size="10.00">_phasefield/prisms_phasefield</text>
<text text-anchor="start" x="401" y="-370" font-family="Helvetica,sans-Serif" font-size="10.00">/include/prismspf/core/invm</text>
<text text-anchor="middle" x="475" y="-359" font-family="Helvetica,sans-Serif" font-size="10.00">_handler.h</text>
</a>
</g>
</g>
<!-- Node2 -->
<g id="Node000002" class="node">
<title>Node2</title>
<g id="a_Node000002"><a xlink:href="grid__refiner__context_8h.html" target="_top" xlink:title=" ">
<polygon fill="white" stroke="#666666" points="164,-316 0,-316 0,-264 164,-264 164,-316"/>
<text text-anchor="start" x="8" y="-304" font-family="Helvetica,sans-Serif" font-size="10.00">/home/runner/work/prisms</text>
<text text-anchor="start" x="8" y="-293" font-family="Helvetica,sans-Serif" font-size="10.00">_phasefield/prisms_phasefield</text>
<text text-anchor="start" x="8" y="-282" font-family="Helvetica,sans-Serif" font-size="10.00">/include/prismspf/core/grid</text>
<text text-anchor="middle" x="82" y="-271" font-family="Helvetica,sans-Serif" font-size="10.00">_refiner_context.h</text>
</a>
</g>
</g>
<!-- Node1&#45;&gt;Node2 -->
<g id="edge1_Node000001_Node000002" class="edge">
<title>Node1&#45;&gt;Node2</title>
<g id="a_edge1_Node000001_Node000002"><a xlink:title=" ">
<path fill="none" stroke="#63b8ff" d="M382.8,-359.35C324.02,-347.78 246.34,-331.9 178,-316 173.47,-314.95 168.83,-313.84 164.15,-312.69"/>
<polygon fill="#63b8ff" stroke="#63b8ff" points="382.32,-362.82 392.81,-361.32 383.67,-355.96 382.32,-362.82"/>
</a>
</g>
</g>
<!-- Node4 -->
<g id="Node000004" class="node">
<title>Node4</title>
<g id="a_Node000004"><a xlink:href="pde__problem_8cc.html" target="_top" xlink:title=" ">
<polygon fill="white" stroke="#666666" points="367,-46.5 203,-46.5 203,-5.5 367,-5.5 367,-46.5"/>
<text text-anchor="start" x="211" y="-34.5" font-family="Helvetica,sans-Serif" font-size="10.00">/home/runner/work/prisms</text>
<text text-anchor="start" x="211" y="-23.5" font-family="Helvetica,sans-Serif" font-size="10.00">_phasefield/prisms_phasefield</text>
<text text-anchor="middle" x="285" y="-12.5" font-family="Helvetica,sans-Serif" font-size="10.00">/src/core/pde_problem.cc</text>
</a>
</g>
</g>
<!-- Node1&#45;&gt;Node4 -->
<g id="edge44_Node000001_Node000004" class="edge">
<title>Node1&#45;&gt;Node4</title>
<g id="a_edge44_Node000001_Node000004"><a xlink:title=" ">
<path fill="none" stroke="#63b8ff" d="M415.33,-346.88C369.65,-321.03 308.19,-279.79 270,-228 232.23,-176.79 220.12,-148.45 240,-88 245.1,-72.5 255.82,-57.7 265.51,-46.57"/>
<polygon fill="#63b8ff" stroke="#63b8ff" points="413.8,-350.04 424.24,-351.84 417.21,-343.92 413.8,-350.04"/>
</a>
</g>
</g>
<!-- Node5 -->
<g id="Node000005" class="node">
<title>Node5</title>
<g id="a_Node000005"><a xlink:href="solver__context_8h.html" target="_top" xlink:title=" ">
<polygon fill="white" stroke="#666666" points="991,-316 819,-316 819,-264 991,-264 991,-316"/>
<text text-anchor="start" x="827" y="-304" font-family="Helvetica,sans-Serif" font-size="10.00">/home/runner/work/prisms</text>
<text text-anchor="start" x="827" y="-293" font-family="Helvetica,sans-Serif" font-size="10.00">_phasefield/prisms_phasefield</text>
<text text-anchor="start" x="827" y="-282" font-family="Helvetica,sans-Serif" font-size="10.00">/include/prismspf/solvers/solver</text>
<text text-anchor="middle" x="905" y="-271" font-family="Helvetica,sans-Serif" font-size="10.00">_context.h</text>
</a>
</g>
</g>
<!-- Node1&#45;&gt;Node5 -->
<g id="edge4_Node000001_Node000005" class="edge">
<title>Node1&#45;&gt;Node5</title>
<g id="a_edge4_Node000001_Node000005"><a xlink:title=" ">
<path fill="none" stroke="#63b8ff" d="M567,-358.6C641.53,-343.69 745.77,-322.85 818.72,-308.26"/>
<polygon fill="#63b8ff" stroke="#63b8ff" points="566.26,-355.18 557.15,-360.57 567.64,-362.04 566.26,-355.18"/>
</a>
</g>
</g>
<!-- Node24 -->
<g id="Node000024" class="node">
<title>Node24</title>
<g id="a_Node000024"><a xlink:href="invm__handler_8cc.html" target="_top" xlink:title=" ">
<polygon fill="white" stroke="#666666" points="1173,-310.5 1009,-310.5 1009,-269.5 1173,-269.5 1173,-310.5"/>
<text text-anchor="start" x="1017" y="-298.5" font-family="Helvetica,sans-Serif" font-size="10.00">/home/runner/work/prisms</text>
<text text-anchor="start" x="1017" y="-287.5" font-family="Helvetica,sans-Serif" font-size="10.00">_phasefield/prisms_phasefield</text>
<text text-anchor="middle" x="1091" y="-276.5" font-family="Helvetica,sans-Serif" font-size="10.00">/src/core/invm_handler.cc</text>
</a>
</g>
</g>
<!-- Node1&#45;&gt;Node24 -->
<g id="edge43_Node000001_Node000024" class="edge">
<title>Node1&#45;&gt;Node24</title>
<g id="a_edge43_Node000001_Node000024"><a xlink:title=" ">
<path fill="none" stroke="#63b8ff" d="M567.41,-370.55C672.79,-362.2 849.91,-345.16 1000,-316 1007.88,-314.47 1016.08,-312.61 1024.18,-310.6"/>
<polygon fill="#63b8ff" stroke="#63b8ff" points="567.13,-367.06 557.44,-371.33 567.68,-374.04 567.13,-367.06"/>
</a>
</g>
</g>
<!-- Node3 -->
<g id="Node000003" class="node">
<title>Node3</title>
<g id="a_Node000003"><a xlink:href="grid__refiner_8h.html" target="_top" xlink:title=" ">
<polygon fill="white" stroke="#666666" points="164,-140 0,-140 0,-88 164,-88 164,-140"/>
<text text-anchor="start" x="8" y="-128" font-family="Helvetica,sans-Serif" font-size="10.00">/home/runner/work/prisms</text>
<text text-anchor="start" x="8" y="-117" font-family="Helvetica,sans-Serif" font-size="10.00">_phasefield/prisms_phasefield</text>
<text text-anchor="start" x="8" y="-106" font-family="Helvetica,sans-Serif" font-size="10.00">/include/prismspf/core/grid</text>
<text text-anchor="middle" x="82" y="-95" font-family="Helvetica,sans-Serif" font-size="10.00">_refiner.h</text>
</a>
</g>
</g>
<!-- Node2&#45;&gt;Node3 -->
<g id="edge2_Node000002_Node000003" class="edge">
<title>Node2&#45;&gt;Node3</title>
<g id="a_edge2_Node000002_Node000003"><a xlink:title=" ">
<path fill="none" stroke="#63b8ff" d="M82,-253.35C82,-219.6 82,-169.79 82,-140.05"/>
<polygon fill="#63b8ff" stroke="#63b8ff" points="78.5,-253.7 82,-263.7 85.5,-253.7 78.5,-253.7"/>
</a>
</g>
</g>
<!-- Node3&#45;&gt;Node4 -->
<g id="edge3_Node000003_Node000004" class="edge">
<title>Node3&#45;&gt;Node4</title>
<g id="a_edge3_Node000003_Node000004"><a xlink:title=" ">
<path fill="none" stroke="#63b8ff" d="M150.55,-83.96C179.65,-71.63 212.8,-57.59 238.9,-46.53"/>
<polygon fill="#63b8ff" stroke="#63b8ff" points="149.1,-80.77 141.26,-87.89 151.83,-87.22 149.1,-80.77"/>
</a>
</g>
</g>
<!-- Node5&#45;&gt;Node4 -->
<g id="edge29_Node000005_Node000004" class="edge">
<title>Node5&#45;&gt;Node4</title>
<g id="a_edge29_Node000005_Node000004"><a xlink:title=" ">
<path fill="none" stroke="#63b8ff" d="M808.67,-284.19C675.9,-276.52 444.19,-259.12 366,-228 305.55,-203.94 278.06,-198.22 249,-140 233.55,-109.05 253.88,-70.06 269.69,-46.91"/>
<polygon fill="#63b8ff" stroke="#63b8ff" points="808.66,-287.69 818.84,-284.77 809.06,-280.7 808.66,-287.69"/>
</a>
</g>
</g>
<!-- Node6 -->
<g id="Node000006" class="node">
<title>Node6</title>
<g id="a_Node000006"><a xlink:href="nucleation_8h.html" target="_top" xlink:title=" ">
<polygon fill="white" stroke="#666666" points="422,-140 258,-140 258,-88 422,-88 422,-140"/>
<text text-anchor="start" x="266" y="-128" font-family="Helvetica,sans-Serif" font-size="10.00">/home/runner/work/prisms</text>
<text text-anchor="start" x="266" y="-117" font-family="Helvetica,sans-Serif" font-size="10.00">_phasefield/prisms_phasefield</text>
<text text-anchor="start" x="266" y="-106" font-family="Helvetica,sans-Serif" font-size="10.00">/include/prismspf/nucleation</text>
<text text-anchor="middle" x="340" y="-95" font-family="Helvetica,sans-Serif" font-size="10.00">/nucleation.h</text>
</a>
</g>
</g>
<!-- Node5&#45;&gt;Node6 -->
<g id="edge5_Node000005_Node000006" class="edge">
<title>Node5&#45;&gt;Node6</title>
<g id="a_edge5_Node000005_Node000006"><a xlink:title=" ">
<path fill="none" stroke="#63b8ff" d="M808.64,-286.16C685.8,-280.98 481.72,-266.68 418,-228 384.58,-207.71 361.97,-167.04 350.03,-140.43"/>
<polygon fill="#63b8ff" stroke="#63b8ff" points="808.66,-289.66 818.8,-286.58 808.95,-282.67 808.66,-289.66"/>
</a>
</g>
</g>
<!-- Node7 -->
<g id="Node000007" class="node">
<title>Node7</title>
<g id="a_Node000007"><a xlink:href="linear__solver__base_8h.html" target="_top" xlink:title=" ">
<polygon fill="white" stroke="#666666" points="1646,-228 1476,-228 1476,-176 1646,-176 1646,-228"/>
<text text-anchor="start" x="1484" y="-216" font-family="Helvetica,sans-Serif" font-size="10.00">/home/runner/work/prisms</text>
<text text-anchor="start" x="1484" y="-205" font-family="Helvetica,sans-Serif" font-size="10.00">_phasefield/prisms_phasefield</text>
<text text-anchor="start" x="1484" y="-194" font-family="Helvetica,sans-Serif" font-size="10.00">/include/prismspf/solvers/linear</text>
<text text-anchor="middle" x="1561" y="-183" font-family="Helvetica,sans-Serif" font-size="10.00">_solver_base.h</text>
</a>
</g>
</g>
<!-- Node5&#45;&gt;Node7 -->
<g id="edge7_Node000005_Node000007" class="edge">
<title>Node5&#45;&gt;Node7</title>
<g id="a_edge7_Node000005_Node000007"><a xlink:title=" ">
<path fill="none" stroke="#63b8ff" d="M1000.99,-263.98C1207.07,-230.4 1264.98,-262.35 1467,-228 1469.91,-227.5 1472.87,-226.96 1475.84,-226.38"/>
<polygon fill="#63b8ff" stroke="#63b8ff" points="1000.36,-260.54 991.07,-265.63 1001.5,-267.44 1000.36,-260.54"/>
</a>
</g>
</g>
<!-- Node9 -->
<g id="Node000009" class="node">
<title>Node9</title>
<g id="a_Node000009"><a xlink:href="solver__handler_8cc.html" target="_top" xlink:title=" ">
<polygon fill="white" stroke="#666666" points="1018,-46.5 854,-46.5 854,-5.5 1018,-5.5 1018,-46.5"/>
<text text-anchor="start" x="862" y="-34.5" font-family="Helvetica,sans-Serif" font-size="10.00">/home/runner/work/prisms</text>
<text text-anchor="start" x="862" y="-23.5" font-family="Helvetica,sans-Serif" font-size="10.00">_phasefield/prisms_phasefield</text>
<text text-anchor="middle" x="936" y="-12.5" font-family="Helvetica,sans-Serif" font-size="10.00">/src/core/solver_handler.cc</text>
</a>
</g>
</g>
<!-- Node5&#45;&gt;Node9 -->
<g id="edge30_Node000005_Node000009" class="edge">
<title>Node5&#45;&gt;Node9</title>
<g id="a_edge30_Node000005_Node000009"><a xlink:title=" ">
<path fill="none" stroke="#63b8ff" d="M808.42,-282.56C683.42,-273.22 478.82,-254.13 456,-228 440.8,-210.59 453.67,-198.99 456,-176 460.02,-136.28 444.33,-114.71 474,-88 535.56,-32.58 763.54,-67.03 845,-52 853.22,-50.48 861.77,-48.58 870.2,-46.5"/>
<polygon fill="#63b8ff" stroke="#63b8ff" points="808.53,-286.07 818.76,-283.32 809.05,-279.09 808.53,-286.07"/>
</a>
</g>
</g>
<!-- Node10 -->
<g id="Node000010" class="node">
<title>Node10</title>
<g id="a_Node000010"><a xlink:href="linear__solver__gmg_8cc.html" target="_top" xlink:title=" ">
<polygon fill="white" stroke="#666666" points="2145.5,-46.5 1966.5,-46.5 1966.5,-5.5 2145.5,-5.5 2145.5,-46.5"/>
<text text-anchor="start" x="1974.5" y="-34.5" font-family="Helvetica,sans-Serif" font-size="10.00">/home/runner/work/prisms</text>
<text text-anchor="start" x="1974.5" y="-23.5" font-family="Helvetica,sans-Serif" font-size="10.00">_phasefield/prisms_phasefield</text>
<text text-anchor="middle" x="2056" y="-12.5" font-family="Helvetica,sans-Serif" font-size="10.00">/src/solvers/linear_solver_gmg.cc</text>
</a>
</g>
</g>
<!-- Node5&#45;&gt;Node10 -->
<g id="edge36_Node000005_Node000010" class="edge">
<title>Node5&#45;&gt;Node10</title>
<g id="a_edge36_Node000005_Node000010"><a xlink:title=" ">
<path fill="none" stroke="#63b8ff" d="M1001.11,-264.07C1183.08,-239.91 1602.58,-280.5 1760,-228 1877.26,-188.89 1991.08,-89.13 2035.95,-46.64"/>
<polygon fill="#63b8ff" stroke="#63b8ff" points="1000.45,-260.63 991.05,-265.51 1001.44,-267.56 1000.45,-260.63"/>
</a>
</g>
</g>
<!-- Node11 -->
<g id="Node000011" class="node">
<title>Node11</title>
<g id="a_Node000011"><a xlink:href="sequential__auxiliary__solver_8cc.html" target="_top" xlink:title=" ">
<polygon fill="white" stroke="#666666" points="1210,-52 1036,-52 1036,0 1210,0 1210,-52"/>
<text text-anchor="start" x="1044" y="-40" font-family="Helvetica,sans-Serif" font-size="10.00">/home/runner/work/prisms</text>
<text text-anchor="start" x="1044" y="-29" font-family="Helvetica,sans-Serif" font-size="10.00">_phasefield/prisms_phasefield</text>
<text text-anchor="start" x="1044" y="-18" font-family="Helvetica,sans-Serif" font-size="10.00">/src/solvers/sequential_auxiliary</text>
<text text-anchor="middle" x="1123" y="-7" font-family="Helvetica,sans-Serif" font-size="10.00">_solver.cc</text>
</a>
</g>
</g>
<!-- Node5&#45;&gt;Node11 -->
<g id="edge37_Node000005_Node000011" class="edge">
<title>Node5&#45;&gt;Node11</title>
<g id="a_edge37_Node000005_Node000011"><a xlink:title=" ">
<path fill="none" stroke="#63b8ff" d="M808.78,-287.92C704.71,-284.46 548.6,-271.87 511,-228 495.96,-210.45 498.7,-195.57 511,-176 636.54,23.67 795,-94.51 1027,-52 1029.88,-51.47 1032.8,-50.9 1035.74,-50.3"/>
<polygon fill="#63b8ff" stroke="#63b8ff" points="808.89,-291.42 818.99,-288.23 809.11,-284.42 808.89,-291.42"/>
</a>
</g>
</g>
<!-- Node12 -->
<g id="Node000012" class="node">
<title>Node12</title>
<g id="a_Node000012"><a xlink:href="sequential__co__nonlinear__solver_8cc.html" target="_top" xlink:title=" ">
<polygon fill="white" stroke="#666666" points="1392,-52 1228,-52 1228,0 1392,0 1392,-52"/>
<text text-anchor="start" x="1236" y="-40" font-family="Helvetica,sans-Serif" font-size="10.00">/home/runner/work/prisms</text>
<text text-anchor="start" x="1236" y="-29" font-family="Helvetica,sans-Serif" font-size="10.00">_phasefield/prisms_phasefield</text>
<text text-anchor="start" x="1236" y="-18" font-family="Helvetica,sans-Serif" font-size="10.00">/src/solvers/sequential_co</text>
<text text-anchor="middle" x="1310" y="-7" font-family="Helvetica,sans-Serif" font-size="10.00">_nonlinear_solver.cc</text>
</a>
</g>
</g>
<!-- Node5&#45;&gt;Node12 -->
<g id="edge38_Node000005_Node000012" class="edge">
<title>Node5&#45;&gt;Node12</title>
<g id="a_edge38_Node000005_Node000012"><a xlink:title=" ">
<path fill="none" stroke="#63b8ff" d="M1001.22,-264.33C1108.87,-254.55 1606.66,-279.07 1655,-228 1670.89,-211.22 1669.73,-193.81 1655,-176 1600.8,-110.43 1543.98,-176.21 1467,-140 1434.15,-124.55 1433.28,-109.47 1404,-88 1387.06,-75.57 1367.68,-62.78 1350.94,-52.13"/>
<polygon fill="#63b8ff" stroke="#63b8ff" points="1000.57,-260.89 991.05,-265.54 1001.4,-267.84 1000.57,-260.89"/>
</a>
</g>
</g>
<!-- Node13 -->
<g id="Node000013" class="node">
<title>Node13</title>
<g id="a_Node000013"><a xlink:href="sequential__linear__solver_8cc.html" target="_top" xlink:title=" ">
<polygon fill="white" stroke="#666666" points="1574,-52 1410,-52 1410,0 1574,0 1574,-52"/>
<text text-anchor="start" x="1418" y="-40" font-family="Helvetica,sans-Serif" font-size="10.00">/home/runner/work/prisms</text>
<text text-anchor="start" x="1418" y="-29" font-family="Helvetica,sans-Serif" font-size="10.00">_phasefield/prisms_phasefield</text>
<text text-anchor="start" x="1418" y="-18" font-family="Helvetica,sans-Serif" font-size="10.00">/src/solvers/sequential_linear</text>
<text text-anchor="middle" x="1492" y="-7" font-family="Helvetica,sans-Serif" font-size="10.00">_solver.cc</text>
</a>
</g>
</g>
<!-- Node5&#45;&gt;Node13 -->
<g id="edge39_Node000005_Node000013" class="edge">
<title>Node5&#45;&gt;Node13</title>
<g id="a_edge39_Node000005_Node000013"><a xlink:title=" ">
<path fill="none" stroke="#63b8ff" d="M1001.16,-264.34C1110.99,-254.35 1624.17,-280.57 1674,-228 1696.02,-204.77 1662.92,-97.16 1655,-88 1643.49,-74.68 1608.7,-60.85 1574.2,-49.74"/>
<polygon fill="#63b8ff" stroke="#63b8ff" points="1000.57,-260.88 991.05,-265.54 1001.39,-267.83 1000.57,-260.88"/>
</a>
</g>
</g>
<!-- Node14 -->
<g id="Node000014" class="node">
<title>Node14</title>
<g id="a_Node000014"><a xlink:href="sequential__self__nonlinear__solver_8cc.html" target="_top" xlink:title=" ">
<polygon fill="white" stroke="#666666" points="1756,-52 1592,-52 1592,0 1756,0 1756,-52"/>
<text text-anchor="start" x="1600" y="-40" font-family="Helvetica,sans-Serif" font-size="10.00">/home/runner/work/prisms</text>
<text text-anchor="start" x="1600" y="-29" font-family="Helvetica,sans-Serif" font-size="10.00">_phasefield/prisms_phasefield</text>
<text text-anchor="start" x="1600" y="-18" font-family="Helvetica,sans-Serif" font-size="10.00">/src/solvers/sequential_self</text>
<text text-anchor="middle" x="1674" y="-7" font-family="Helvetica,sans-Serif" font-size="10.00">_nonlinear_solver.cc</text>
</a>
</g>
</g>
<!-- Node5&#45;&gt;Node14 -->
<g id="edge40_Node000005_Node000014" class="edge">
<title>Node5&#45;&gt;Node14</title>
<g id="a_edge40_Node000005_Node000014"><a xlink:title=" ">
<path fill="none" stroke="#63b8ff" d="M1001.05,-264.34C1112.73,-254.16 1639.83,-281.91 1691,-228 1736.21,-180.38 1706.07,-94.69 1686.71,-52.24"/>
<polygon fill="#63b8ff" stroke="#63b8ff" points="1000.57,-260.88 991.05,-265.53 1001.39,-267.83 1000.57,-260.88"/>
</a>
</g>
</g>
<!-- Node15 -->
<g id="Node000015" class="node">
<title>Node15</title>
<g id="a_Node000015"><a xlink:href="sequential__solver_8cc.html" target="_top" xlink:title=" ">
<polygon fill="white" stroke="#666666" points="1948,-46.5 1774,-46.5 1774,-5.5 1948,-5.5 1948,-46.5"/>
<text text-anchor="start" x="1782" y="-34.5" font-family="Helvetica,sans-Serif" font-size="10.00">/home/runner/work/prisms</text>
<text text-anchor="start" x="1782" y="-23.5" font-family="Helvetica,sans-Serif" font-size="10.00">_phasefield/prisms_phasefield</text>
<text text-anchor="middle" x="1861" y="-12.5" font-family="Helvetica,sans-Serif" font-size="10.00">/src/solvers/sequential_solver.cc</text>
</a>
</g>
</g>
<!-- Node5&#45;&gt;Node15 -->
<g id="edge41_Node000005_Node000015" class="edge">
<title>Node5&#45;&gt;Node15</title>
<g id="a_edge41_Node000005_Node000015"><a xlink:title=" ">
<path fill="none" stroke="#63b8ff" d="M1000.99,-264.28C1114.76,-252.66 1648.28,-264.83 1716,-228 1791.04,-187.2 1836.89,-88.82 1853.7,-46.69"/>
<polygon fill="#63b8ff" stroke="#63b8ff" points="1000.54,-260.81 991.05,-265.52 1001.41,-267.76 1000.54,-260.81"/>
</a>
</g>
</g>
<!-- Node18 -->
<g id="Node000018" class="node">
<title>Node18</title>
<g id="a_Node000018"><a xlink:href="linear__solver__base_8cc.html" target="_top" xlink:title=" ">
<polygon fill="white" stroke="#666666" points="883,-134.5 703,-134.5 703,-93.5 883,-93.5 883,-134.5"/>
<text text-anchor="start" x="711" y="-122.5" font-family="Helvetica,sans-Serif" font-size="10.00">/home/runner/work/prisms</text>
<text text-anchor="start" x="711" y="-111.5" font-family="Helvetica,sans-Serif" font-size="10.00">_phasefield/prisms_phasefield</text>
<text text-anchor="middle" x="793" y="-100.5" font-family="Helvetica,sans-Serif" font-size="10.00">/src/solvers/linear_solver_base.cc</text>
</a>
</g>
</g>
<!-- Node5&#45;&gt;Node18 -->
<g id="edge35_Node000005_Node000018" class="edge">
<title>Node5&#45;&gt;Node18</title>
<g id="a_edge35_Node000005_Node000018"><a xlink:title=" ">
<path fill="none" stroke="#63b8ff" d="M808.85,-287.17C709.02,-283 562.52,-269.71 527,-228 472.02,-163.44 605.56,-134.87 702.67,-122.91"/>
<polygon fill="#63b8ff" stroke="#63b8ff" points="808.84,-290.67 818.97,-287.57 809.11,-283.68 808.84,-290.67"/>
</a>
</g>
</g>
<!-- Node19 -->
<g id="Node000019" class="node">
<title>Node19</title>
<g id="a_Node000019"><a xlink:href="concurrent__constant__solver_8cc.html" target="_top" xlink:title=" ">
<polygon fill="white" stroke="#666666" points="710,-228 536,-228 536,-176 710,-176 710,-228"/>
<text text-anchor="start" x="544" y="-216" font-family="Helvetica,sans-Serif" font-size="10.00">/home/runner/work/prisms</text>
<text text-anchor="start" x="544" y="-205" font-family="Helvetica,sans-Serif" font-size="10.00">_phasefield/prisms_phasefield</text>
<text text-anchor="start" x="544" y="-194" font-family="Helvetica,sans-Serif" font-size="10.00">/src/solvers/concurrent_constant</text>
<text text-anchor="middle" x="623" y="-183" font-family="Helvetica,sans-Serif" font-size="10.00">_solver.cc</text>
</a>
</g>
</g>
<!-- Node5&#45;&gt;Node19 -->
<g id="edge31_Node000005_Node000019" class="edge">
<title>Node5&#45;&gt;Node19</title>
<g id="a_edge31_Node000005_Node000019"><a xlink:title=" ">
<path fill="none" stroke="#63b8ff" d="M813.03,-260.95C778.36,-250.38 739.17,-238.43 705.43,-228.14"/>
<polygon fill="#63b8ff" stroke="#63b8ff" points="812.09,-264.32 822.68,-263.89 814.13,-257.63 812.09,-264.32"/>
</a>
</g>
</g>
<!-- Node20 -->
<g id="Node000020" class="node">
<title>Node20</title>
<g id="a_Node000020"><a xlink:href="concurrent__explicit__postprocess__solver_8cc.html" target="_top" xlink:title=" ">
<polygon fill="white" stroke="#666666" points="896,-228 728,-228 728,-176 896,-176 896,-228"/>
<text text-anchor="start" x="736" y="-216" font-family="Helvetica,sans-Serif" font-size="10.00">/home/runner/work/prisms</text>
<text text-anchor="start" x="736" y="-205" font-family="Helvetica,sans-Serif" font-size="10.00">_phasefield/prisms_phasefield</text>
<text text-anchor="start" x="736" y="-194" font-family="Helvetica,sans-Serif" font-size="10.00">/src/solvers/concurrent_explicit</text>
<text text-anchor="middle" x="812" y="-183" font-family="Helvetica,sans-Serif" font-size="10.00">_postprocess_solver.cc</text>
</a>
</g>
</g>
<!-- Node5&#45;&gt;Node20 -->
<g id="edge32_Node000005_Node000020" class="edge">
<title>Node5&#45;&gt;Node20</title>
<g id="a_edge32_Node000005_Node000020"><a xlink:title=" ">
<path fill="none" stroke="#63b8ff" d="M870,-256.63C859.81,-247.21 848.84,-237.06 839.2,-228.16"/>
<polygon fill="#63b8ff" stroke="#63b8ff" points="867.88,-259.44 877.6,-263.66 872.63,-254.3 867.88,-259.44"/>
</a>
</g>
</g>
<!-- Node21 -->
<g id="Node000021" class="node">
<title>Node21</title>
<g id="a_Node000021"><a xlink:href="concurrent__explicit__solver_8cc.html" target="_top" xlink:title=" ">
<polygon fill="white" stroke="#666666" points="1082,-228 914,-228 914,-176 1082,-176 1082,-228"/>
<text text-anchor="start" x="922" y="-216" font-family="Helvetica,sans-Serif" font-size="10.00">/home/runner/work/prisms</text>
<text text-anchor="start" x="922" y="-205" font-family="Helvetica,sans-Serif" font-size="10.00">_phasefield/prisms_phasefield</text>
<text text-anchor="start" x="922" y="-194" font-family="Helvetica,sans-Serif" font-size="10.00">/src/solvers/concurrent_explicit</text>
<text text-anchor="middle" x="998" y="-183" font-family="Helvetica,sans-Serif" font-size="10.00">_solver.cc</text>
</a>
</g>
</g>
<!-- Node5&#45;&gt;Node21 -->
<g id="edge33_Node000005_Node000021" class="edge">
<title>Node5&#45;&gt;Node21</title>
<g id="a_edge33_Node000005_Node000021"><a xlink:title=" ">
<path fill="none" stroke="#63b8ff" d="M940,-256.63C950.19,-247.21 961.16,-237.06 970.8,-228.16"/>
<polygon fill="#63b8ff" stroke="#63b8ff" points="937.37,-254.3 932.4,-263.66 942.12,-259.44 937.37,-254.3"/>
</a>
</g>
</g>
<!-- Node22 -->
<g id="Node000022" class="node">
<title>Node22</title>
<g id="a_Node000022"><a xlink:href="concurrent__solver_8cc.html" target="_top" xlink:title=" ">
<polygon fill="white" stroke="#666666" points="1275.5,-222.5 1100.5,-222.5 1100.5,-181.5 1275.5,-181.5 1275.5,-222.5"/>
<text text-anchor="start" x="1108.5" y="-210.5" font-family="Helvetica,sans-Serif" font-size="10.00">/home/runner/work/prisms</text>
<text text-anchor="start" x="1108.5" y="-199.5" font-family="Helvetica,sans-Serif" font-size="10.00">_phasefield/prisms_phasefield</text>
<text text-anchor="middle" x="1188" y="-188.5" font-family="Helvetica,sans-Serif" font-size="10.00">/src/solvers/concurrent_solver.cc</text>
</a>
</g>
</g>
<!-- Node5&#45;&gt;Node22 -->
<g id="edge34_Node000005_Node000022" class="edge">
<title>Node5&#45;&gt;Node22</title>
<g id="a_edge34_Node000005_Node000022"><a xlink:title=" ">
<path fill="none" stroke="#63b8ff" d="M997.42,-260.92C1038.72,-248.36 1086.4,-233.88 1123.73,-222.53"/>
<polygon fill="#63b8ff" stroke="#63b8ff" points="996.17,-257.64 987.62,-263.89 998.2,-264.34 996.17,-257.64"/>
</a>
</g>
</g>
<!-- Node23 -->
<g id="Node000023" class="node">
<title>Node23</title>
<g id="a_Node000023"><a xlink:href="solver__base_8cc.html" target="_top" xlink:title=" ">
<polygon fill="white" stroke="#666666" points="1458,-222.5 1294,-222.5 1294,-181.5 1458,-181.5 1458,-222.5"/>
<text text-anchor="start" x="1302" y="-210.5" font-family="Helvetica,sans-Serif" font-size="10.00">/home/runner/work/prisms</text>
<text text-anchor="start" x="1302" y="-199.5" font-family="Helvetica,sans-Serif" font-size="10.00">_phasefield/prisms_phasefield</text>
<text text-anchor="middle" x="1376" y="-188.5" font-family="Helvetica,sans-Serif" font-size="10.00">/src/solvers/solver_base.cc</text>
</a>
</g>
</g>
<!-- Node5&#45;&gt;Node23 -->
<g id="edge42_Node000005_Node000023" class="edge">
<title>Node5&#45;&gt;Node23</title>
<g id="a_edge42_Node000005_Node000023"><a xlink:title=" ">
<path fill="none" stroke="#63b8ff" d="M1001.1,-263.9C1126.7,-240.39 1162.37,-252.11 1284,-228 1291.96,-226.42 1300.24,-224.53 1308.43,-222.51"/>
<polygon fill="#63b8ff" stroke="#63b8ff" points="1000.27,-260.5 991.1,-265.82 1001.58,-267.38 1000.27,-260.5"/>
</a>
</g>
</g>
<!-- Node6&#45;&gt;Node4 -->
<g id="edge6_Node000006_Node000004" class="edge">
<title>Node6&#45;&gt;Node4</title>
<g id="a_edge6_Node000006_Node000004"><a xlink:title=" ">
<path fill="none" stroke="#63b8ff" d="M318.31,-79.09C311.29,-68.11 303.74,-56.3 297.6,-46.7"/>
<polygon fill="#63b8ff" stroke="#63b8ff" points="315.46,-81.12 323.8,-87.66 321.36,-77.35 315.46,-81.12"/>
</a>
</g>
</g>
<!-- Node8 -->
<g id="Node000008" class="node">
<title>Node8</title>
<g id="a_Node000008"><a xlink:href="linear__solver__gmg_8h.html" target="_top" xlink:title=" ">
<polygon fill="white" stroke="#666666" points="1646,-140 1476,-140 1476,-88 1646,-88 1646,-140"/>
<text text-anchor="start" x="1484" y="-128" font-family="Helvetica,sans-Serif" font-size="10.00">/home/runner/work/prisms</text>
<text text-anchor="start" x="1484" y="-117" font-family="Helvetica,sans-Serif" font-size="10.00">_phasefield/prisms_phasefield</text>
<text text-anchor="start" x="1484" y="-106" font-family="Helvetica,sans-Serif" font-size="10.00">/include/prismspf/solvers/linear</text>
<text text-anchor="middle" x="1561" y="-95" font-family="Helvetica,sans-Serif" font-size="10.00">_solver_gmg.h</text>
</a>
</g>
</g>
<!-- Node7&#45;&gt;Node8 -->
<g id="edge8_Node000007_Node000008" class="edge">
<title>Node7&#45;&gt;Node8</title>
<g id="a_edge8_Node000007_Node000008"><a xlink:title=" ">
<path fill="none" stroke="#63b8ff" d="M1561,-165.56C1561,-157.04 1561,-148.1 1561,-140.16"/>
<polygon fill="#63b8ff" stroke="#63b8ff" points="1557.5,-165.66 1561,-175.66 1564.5,-165.66 1557.5,-165.66"/>
</a>
</g>
</g>
<!-- Node7&#45;&gt;Node10 -->
<g id="edge27_Node000007_Node000010" class="edge">
<title>Node7&#45;&gt;Node10</title>
<g id="a_edge27_Node000007_Node000010"><a xlink:title=" ">
<path fill="none" stroke="#63b8ff" d="M1641.73,-172.62C1742.63,-137.15 1912.68,-77.38 2000.22,-46.61"/>
<polygon fill="#63b8ff" stroke="#63b8ff" points="1640.46,-169.36 1632.18,-175.98 1642.78,-175.96 1640.46,-169.36"/>
</a>
</g>
</g>
<!-- Node16 -->
<g id="Node000016" class="node">
<title>Node16</title>
<g id="a_Node000016"><a xlink:href="linear__solver__identity_8h.html" target="_top" xlink:title=" ">
<polygon fill="white" stroke="#666666" points="1395,-140 1225,-140 1225,-88 1395,-88 1395,-140"/>
<text text-anchor="start" x="1233" y="-128" font-family="Helvetica,sans-Serif" font-size="10.00">/home/runner/work/prisms</text>
<text text-anchor="start" x="1233" y="-117" font-family="Helvetica,sans-Serif" font-size="10.00">_phasefield/prisms_phasefield</text>
<text text-anchor="start" x="1233" y="-106" font-family="Helvetica,sans-Serif" font-size="10.00">/include/prismspf/solvers/linear</text>
<text text-anchor="middle" x="1310" y="-95" font-family="Helvetica,sans-Serif" font-size="10.00">_solver_identity.h</text>
</a>
</g>
</g>
<!-- Node7&#45;&gt;Node16 -->
<g id="edge17_Node000007_Node000016" class="edge">
<title>Node7&#45;&gt;Node16</title>
<g id="a_edge17_Node000007_Node000016"><a xlink:title=" ">
<path fill="none" stroke="#63b8ff" d="M1477.95,-172.54C1447.38,-162.07 1413.01,-150.3 1383.37,-140.14"/>
<polygon fill="#63b8ff" stroke="#63b8ff" points="1477.13,-175.96 1487.73,-175.89 1479.4,-169.34 1477.13,-175.96"/>
</a>
</g>
</g>
<!-- Node17 -->
<g id="Node000017" class="node">
<title>Node17</title>
<g id="a_Node000017"><a xlink:href="linear__solver__identity_8cc.html" target="_top" xlink:title=" ">
<polygon fill="white" stroke="#666666" points="836,-52 672,-52 672,0 836,0 836,-52"/>
<text text-anchor="start" x="680" y="-40" font-family="Helvetica,sans-Serif" font-size="10.00">/home/runner/work/prisms</text>
<text text-anchor="start" x="680" y="-29" font-family="Helvetica,sans-Serif" font-size="10.00">_phasefield/prisms_phasefield</text>
<text text-anchor="start" x="680" y="-18" font-family="Helvetica,sans-Serif" font-size="10.00">/src/solvers/linear_solver</text>
<text text-anchor="middle" x="754" y="-7" font-family="Helvetica,sans-Serif" font-size="10.00">_identity.cc</text>
</a>
</g>
</g>
<!-- Node7&#45;&gt;Node17 -->
<g id="edge28_Node000007_Node000017" class="edge">
<title>Node7&#45;&gt;Node17</title>
<g id="a_edge28_Node000007_Node000017"><a xlink:title=" ">
<path fill="none" stroke="#63b8ff" d="M1465.88,-175.88C1354.82,-153.88 1323.58,-160.43 1216,-140 1049.51,-108.38 1009.17,-94.01 845,-52 842.14,-51.27 839.24,-50.52 836.31,-49.75"/>
<polygon fill="#63b8ff" stroke="#63b8ff" points="1465.3,-179.33 1475.8,-177.87 1466.69,-172.47 1465.3,-179.33"/>
</a>
</g>
</g>
<!-- Node7&#45;&gt;Node18 -->
<g id="edge26_Node000007_Node000018" class="edge">
<title>Node7&#45;&gt;Node18</title>
<g id="a_edge26_Node000007_Node000018"><a xlink:title=" ">
<path fill="none" stroke="#63b8ff" d="M1465.9,-176.24C1395.03,-167.19 1049.71,-137.12 883.06,-122.74"/>
<polygon fill="#63b8ff" stroke="#63b8ff" points="1465.44,-179.71 1475.83,-177.67 1466.44,-172.78 1465.44,-179.71"/>
</a>
</g>
</g>
<!-- Node8&#45;&gt;Node4 -->
<g id="edge9_Node000008_Node000004" class="edge">
<title>Node8&#45;&gt;Node4</title>
<g id="a_edge9_Node000008_Node000004"><a xlink:title=" ">
<path fill="none" stroke="#63b8ff" d="M1465.78,-96.13C1445.45,-93 1424.05,-90.08 1404,-88 1076.03,-54.02 992.18,-70.88 663,-52 561.06,-46.15 443.74,-38.2 367.19,-32.85"/>
<polygon fill="#63b8ff" stroke="#63b8ff" points="1465.25,-99.59 1475.67,-97.67 1466.33,-92.67 1465.25,-99.59"/>
</a>
</g>
</g>
<!-- Node8&#45;&gt;Node9 -->
<g id="edge10_Node000008_Node000009" class="edge">
<title>Node8&#45;&gt;Node9</title>
<g id="a_edge10_Node000008_Node000009"><a xlink:title=" ">
<path fill="none" stroke="#63b8ff" d="M1466.06,-96.9C1445.62,-93.71 1424.12,-90.56 1404,-88 1237.03,-66.76 1192.55,-82.41 1027,-52 1018.78,-50.49 1010.23,-48.59 1001.79,-46.51"/>
<polygon fill="#63b8ff" stroke="#63b8ff" points="1465.57,-100.37 1475.99,-98.47 1466.66,-93.45 1465.57,-100.37"/>
</a>
</g>
</g>
<!-- Node8&#45;&gt;Node10 -->
<g id="edge11_Node000008_Node000010" class="edge">
<title>Node8&#45;&gt;Node10</title>
<g id="a_edge11_Node000008_Node000010"><a xlink:title=" ">
<path fill="none" stroke="#63b8ff" d="M1656.15,-88.73C1657.44,-88.48 1658.73,-88.24 1660,-88 1790.72,-63.67 1826.28,-76.33 1957,-52 1965.45,-50.43 1974.26,-48.55 1982.97,-46.55"/>
<polygon fill="#63b8ff" stroke="#63b8ff" points="1655.27,-85.34 1646.17,-90.76 1656.67,-92.2 1655.27,-85.34"/>
</a>
</g>
</g>
<!-- Node8&#45;&gt;Node11 -->
<g id="edge12_Node000008_Node000011" class="edge">
<title>Node8&#45;&gt;Node11</title>
<g id="a_edge12_Node000008_Node000011"><a xlink:title=" ">
<path fill="none" stroke="#63b8ff" d="M1465.99,-98.1C1397.15,-86.81 1301.97,-70.17 1219,-52 1216.06,-51.36 1213.07,-50.68 1210.05,-49.99"/>
<polygon fill="#63b8ff" stroke="#63b8ff" points="1465.52,-101.57 1475.96,-99.73 1466.65,-94.66 1465.52,-101.57"/>
</a>
</g>
</g>
<!-- Node8&#45;&gt;Node12 -->
<g id="edge13_Node000008_Node000012" class="edge">
<title>Node8&#45;&gt;Node12</title>
<g id="a_edge13_Node000008_Node000012"><a xlink:title=" ">
<path fill="none" stroke="#63b8ff" d="M1477.95,-84.54C1447.38,-74.07 1413.01,-62.3 1383.37,-52.14"/>
<polygon fill="#63b8ff" stroke="#63b8ff" points="1477.13,-87.96 1487.73,-87.89 1479.4,-81.34 1477.13,-87.96"/>
</a>
</g>
</g>
<!-- Node8&#45;&gt;Node13 -->
<g id="edge14_Node000008_Node000013" class="edge">
<title>Node8&#45;&gt;Node13</title>
<g id="a_edge14_Node000008_Node000013"><a xlink:title=" ">
<path fill="none" stroke="#63b8ff" d="M1534.36,-79.8C1526.99,-70.61 1519.12,-60.8 1512.18,-52.16"/>
<polygon fill="#63b8ff" stroke="#63b8ff" points="1531.68,-82.05 1540.67,-87.66 1537.14,-77.67 1531.68,-82.05"/>
</a>
</g>
</g>
<!-- Node8&#45;&gt;Node14 -->
<g id="edge15_Node000008_Node000014" class="edge">
<title>Node8&#45;&gt;Node14</title>
<g id="a_edge15_Node000008_Node000014"><a xlink:title=" ">
<path fill="none" stroke="#63b8ff" d="M1602.15,-81.69C1614.85,-72.02 1628.68,-61.49 1640.78,-52.29"/>
<polygon fill="#63b8ff" stroke="#63b8ff" points="1599.83,-79.05 1593.99,-87.89 1604.07,-84.62 1599.83,-79.05"/>
</a>
</g>
</g>
<!-- Node8&#45;&gt;Node15 -->
<g id="edge16_Node000008_Node000015" class="edge">
<title>Node8&#45;&gt;Node15</title>
<g id="a_edge16_Node000008_Node000015"><a xlink:title=" ">
<path fill="none" stroke="#63b8ff" d="M1655.82,-85.82C1700.28,-73.07 1752.25,-58.18 1792.76,-46.56"/>
<polygon fill="#63b8ff" stroke="#63b8ff" points="1654.81,-82.47 1646.17,-88.59 1656.74,-89.19 1654.81,-82.47"/>
</a>
</g>
</g>
<!-- Node16&#45;&gt;Node4 -->
<g id="edge18_Node000016_Node000004" class="edge">
<title>Node16&#45;&gt;Node4</title>
<g id="a_edge18_Node000016_Node000004"><a xlink:title=" ">
<path fill="none" stroke="#63b8ff" d="M1214.62,-105C1014.78,-88.23 555.11,-49.66 367.26,-33.9"/>
<polygon fill="#63b8ff" stroke="#63b8ff" points="1214.55,-108.5 1224.81,-105.85 1215.14,-101.53 1214.55,-108.5"/>
</a>
</g>
</g>
<!-- Node16&#45;&gt;Node9 -->
<g id="edge19_Node000016_Node000009" class="edge">
<title>Node16&#45;&gt;Node9</title>
<g id="a_edge19_Node000016_Node000009"><a xlink:title=" ">
<path fill="none" stroke="#63b8ff" d="M1214.8,-93.86C1159.75,-82.45 1089.27,-67.25 1027,-52 1020,-50.28 1012.71,-48.42 1005.45,-46.51"/>
<polygon fill="#63b8ff" stroke="#63b8ff" points="1214.39,-97.35 1224.89,-95.95 1215.8,-90.5 1214.39,-97.35"/>
</a>
</g>
</g>
<!-- Node16&#45;&gt;Node11 -->
<g id="edge21_Node000016_Node000011" class="edge">
<title>Node16&#45;&gt;Node11</title>
<g id="a_edge21_Node000016_Node000011"><a xlink:title=" ">
<path fill="none" stroke="#63b8ff" d="M1246.05,-83.59C1223.81,-73.36 1199.08,-61.99 1177.66,-52.14"/>
<polygon fill="#63b8ff" stroke="#63b8ff" points="1244.86,-86.9 1255.41,-87.89 1247.79,-80.54 1244.86,-86.9"/>
</a>
</g>
</g>
<!-- Node16&#45;&gt;Node12 -->
<g id="edge22_Node000016_Node000012" class="edge">
<title>Node16&#45;&gt;Node12</title>
<g id="a_edge22_Node000016_Node000012"><a xlink:title=" ">
<path fill="none" stroke="#63b8ff" d="M1310,-77.56C1310,-69.04 1310,-60.1 1310,-52.16"/>
<polygon fill="#63b8ff" stroke="#63b8ff" points="1306.5,-77.66 1310,-87.66 1313.5,-77.66 1306.5,-77.66"/>
</a>
</g>
</g>
<!-- Node16&#45;&gt;Node13 -->
<g id="edge23_Node000016_Node000013" class="edge">
<title>Node16&#45;&gt;Node13</title>
<g id="a_edge23_Node000016_Node000013"><a xlink:title=" ">
<path fill="none" stroke="#63b8ff" d="M1372.24,-83.59C1393.89,-73.36 1417.96,-61.99 1438.8,-52.14"/>
<polygon fill="#63b8ff" stroke="#63b8ff" points="1370.68,-80.46 1363.13,-87.89 1373.67,-86.79 1370.68,-80.46"/>
</a>
</g>
</g>
<!-- Node16&#45;&gt;Node14 -->
<g id="edge24_Node000016_Node000014" class="edge">
<title>Node16&#45;&gt;Node14</title>
<g id="a_edge24_Node000016_Node000014"><a xlink:title=" ">
<path fill="none" stroke="#63b8ff" d="M1405.09,-92.93C1457.68,-81.54 1524.12,-66.66 1583,-52 1585.86,-51.29 1588.77,-50.55 1591.71,-49.8"/>
<polygon fill="#63b8ff" stroke="#63b8ff" points="1404.13,-89.56 1395.1,-95.09 1405.61,-96.4 1404.13,-89.56"/>
</a>
</g>
</g>
<!-- Node16&#45;&gt;Node15 -->
<g id="edge25_Node000016_Node000015" class="edge">
<title>Node16&#45;&gt;Node15</title>
<g id="a_edge25_Node000016_Node000015"><a xlink:title=" ">
<path fill="none" stroke="#63b8ff" d="M1404.99,-97.28C1425.43,-94.07 1446.92,-90.81 1467,-88 1599.12,-69.51 1633.93,-76.87 1765,-52 1773.29,-50.43 1781.93,-48.54 1790.47,-46.52"/>
<polygon fill="#63b8ff" stroke="#63b8ff" points="1404.39,-93.84 1395.06,-98.86 1405.48,-100.75 1404.39,-93.84"/>
</a>
</g>
</g>
<!-- Node16&#45;&gt;Node17 -->
<g id="edge20_Node000016_Node000017" class="edge">
<title>Node16&#45;&gt;Node17</title>
<g id="a_edge20_Node000016_Node000017"><a xlink:title=" ">
<path fill="none" stroke="#63b8ff" d="M1214.7,-100.67C1081.29,-83.37 854,-53.82 845,-52 842.11,-51.42 839.18,-50.79 836.22,-50.13"/>
<polygon fill="#63b8ff" stroke="#63b8ff" points="1214.57,-104.18 1224.93,-101.99 1215.47,-97.23 1214.57,-104.18"/>
</a>
</g>
</g>
</g>
</svg>
