<?xml version="1.0" encoding="UTF-8" standalone="no"?>
<!DOCTYPE svg PUBLIC "-//W3C//DTD SVG 1.1//EN"
 "http://www.w3.org/Graphics/SVG/1.1/DTD/svg11.dtd">
<!-- Generated by graphviz version 2.43.0 (0)
 -->
<!-- Title: /home/runner/work/prisms_phasefield/prisms_phasefield/include/prismspf/core/matrix_free_handler.h Pages: 1 -->
<svg width="933pt" height="126pt"
 viewBox="0.00 0.00 933.00 126.00" xmlns="http://www.w3.org/2000/svg" xmlns:xlink="http://www.w3.org/1999/xlink">
<g id="graph0" class="graph" transform="scale(1 1) rotate(0) translate(4 122)">
<title>/home/runner/work/prisms_phasefield/prisms_phasefield/include/prismspf/core/matrix_free_handler.h</title>
<!-- Node1 -->
<g id="Node000001" class="node">
<title>Node1</title>
<g id="a_Node000001"><a xlink:title=" ">
<polygon fill="#999999" stroke="#666666" points="592.5,-118 428.5,-118 428.5,-66 592.5,-66 592.5,-118"/>
<text text-anchor="start" x="436.5" y="-106" font-family="Helvetica,sans-Serif" font-size="10.00">/home/runner/work/prisms</text>
<text text-anchor="start" x="436.5" y="-95" font-family="Helvetica,sans-Serif" font-size="10.00">_phasefield/prisms_phasefield</text>
<text text-anchor="start" x="436.5" y="-84" font-family="Helvetica,sans-Serif" font-size="10.00">/include/prismspf/core/matrix</text>
<text text-anchor="middle" x="510.5" y="-73" font-family="Helvetica,sans-Serif" font-size="10.00">_free_handler.h</text>
</a>
</g>
</g>
<!-- Node2 -->
<g id="Node000002" class="node">
<title>Node2</title>
<g id="a_Node000002"><a xlink:title=" ">
<polygon fill="#e0e0e0" stroke="#999999" points="121,-30 0,-30 0,0 121,0 121,-30"/>
<text text-anchor="start" x="8" y="-18" font-family="Helvetica,sans-Serif" font-size="10.00">deal.II/base/mg_level</text>
<text text-anchor="middle" x="60.5" y="-7" font-family="Helvetica,sans-Serif" font-size="10.00">_object.h</text>
</a>
</g>
</g>
<!-- Node1&#45;&gt;Node2 -->
<g id="edge1_Node000001_Node000002" class="edge">
<title>Node1&#45;&gt;Node2</title>
<g id="a_edge1_Node000001_Node000002"><a xlink:title=" ">
<path fill="none" stroke="#63b8ff" d="M428.44,-78.75C353.7,-67.39 240.05,-49.57 131.34,-30.11"/>
<polygon fill="#63b8ff" stroke="#63b8ff" points="131.64,-26.61 121.18,-28.28 130.4,-33.5 131.64,-26.61"/>
</a>
</g>
</g>
<!-- Node3 -->
<g id="Node000003" class="node">
<title>Node3</title>
<g id="a_Node000003"><a xlink:title=" ">
<polygon fill="#e0e0e0" stroke="#999999" points="277.5,-24.5 139.5,-24.5 139.5,-5.5 277.5,-5.5 277.5,-24.5"/>
<text text-anchor="middle" x="208.5" y="-12.5" font-family="Helvetica,sans-Serif" font-size="10.00">deal.II/base/quadrature.h</text>
</a>
</g>
</g>
<!-- Node1&#45;&gt;Node3 -->
<g id="edge2_Node000001_Node000003" class="edge">
<title>Node1&#45;&gt;Node3</title>
<g id="a_edge2_Node000001_Node000003"><a xlink:title=" ">
<path fill="none" stroke="#63b8ff" d="M428.38,-70.6C371.87,-56.57 298.98,-38.47 252.97,-27.05"/>
<polygon fill="#63b8ff" stroke="#63b8ff" points="253.57,-23.59 243.02,-24.57 251.88,-30.38 253.57,-23.59"/>
</a>
</g>
</g>
<!-- Node4 -->
<g id="Node000004" class="node">
<title>Node4</title>
<g id="a_Node000004"><a xlink:title=" ">
<polygon fill="#e0e0e0" stroke="#999999" points="435.5,-24.5 295.5,-24.5 295.5,-5.5 435.5,-5.5 435.5,-24.5"/>
<text text-anchor="middle" x="365.5" y="-12.5" font-family="Helvetica,sans-Serif" font-size="10.00">deal.II/dofs/dof_handler.h</text>
</a>
</g>
</g>
<!-- Node1&#45;&gt;Node4 -->
<g id="edge3_Node000001_Node000004" class="edge">
<title>Node1&#45;&gt;Node4</title>
<g id="a_edge3_Node000001_Node000004"><a xlink:title=" ">
<path fill="none" stroke="#63b8ff" d="M461.81,-65.82C438.06,-53.53 410.46,-39.26 390.92,-29.15"/>
<polygon fill="#63b8ff" stroke="#63b8ff" points="392.51,-26.03 382.02,-24.54 389.29,-32.25 392.51,-26.03"/>
</a>
</g>
</g>
<!-- Node5 -->
<g id="Node000005" class="node">
<title>Node5</title>
<g id="a_Node000005"><a xlink:title=" ">
<polygon fill="#e0e0e0" stroke="#999999" points="567.5,-24.5 453.5,-24.5 453.5,-5.5 567.5,-5.5 567.5,-24.5"/>
<text text-anchor="middle" x="510.5" y="-12.5" font-family="Helvetica,sans-Serif" font-size="10.00">deal.II/fe/mapping.h</text>
</a>
</g>
</g>
<!-- Node1&#45;&gt;Node5 -->
<g id="edge4_Node000001_Node000005" class="edge">
<title>Node1&#45;&gt;Node5</title>
<g id="a_edge4_Node000001_Node000005"><a xlink:title=" ">
<path fill="none" stroke="#63b8ff" d="M510.5,-65.61C510.5,-55.58 510.5,-44.25 510.5,-34.96"/>
<polygon fill="#63b8ff" stroke="#63b8ff" points="514,-34.85 510.5,-24.85 507,-34.85 514,-34.85"/>
</a>
</g>
</g>
<!-- Node6 -->
<g id="Node000006" class="node">
<title>Node6</title>
<g id="a_Node000006"><a xlink:title=" ">
<polygon fill="#e0e0e0" stroke="#999999" points="681,-30 586,-30 586,0 681,0 681,-30"/>
<text text-anchor="start" x="594" y="-18" font-family="Helvetica,sans-Serif" font-size="10.00">deal.II/lac/affine</text>
<text text-anchor="middle" x="633.5" y="-7" font-family="Helvetica,sans-Serif" font-size="10.00">_constraints.h</text>
</a>
</g>
</g>
<!-- Node1&#45;&gt;Node6 -->
<g id="edge5_Node000001_Node000006" class="edge">
<title>Node1&#45;&gt;Node6</title>
<g id="a_edge5_Node000001_Node000006"><a xlink:title=" ">
<path fill="none" stroke="#63b8ff" d="M551.8,-65.82C568.13,-55.86 586.61,-44.59 601.85,-35.3"/>
<polygon fill="#63b8ff" stroke="#63b8ff" points="603.7,-38.27 610.41,-30.08 600.05,-32.29 603.7,-38.27"/>
</a>
</g>
</g>
<!-- Node7 -->
<g id="Node000007" class="node">
<title>Node7</title>
<g id="a_Node000007"><a xlink:title=" ">
<polygon fill="#e0e0e0" stroke="#999999" points="806,-30 699,-30 699,0 806,0 806,-30"/>
<text text-anchor="start" x="707" y="-18" font-family="Helvetica,sans-Serif" font-size="10.00">deal.II/matrix_free</text>
<text text-anchor="middle" x="752.5" y="-7" font-family="Helvetica,sans-Serif" font-size="10.00">/matrix_free.h</text>
</a>
</g>
</g>
<!-- Node1&#45;&gt;Node7 -->
<g id="edge6_Node000001_Node000007" class="edge">
<title>Node1&#45;&gt;Node7</title>
<g id="a_edge6_Node000001_Node000007"><a xlink:title=" ">
<path fill="none" stroke="#63b8ff" d="M591.42,-65.92C626.26,-55.12 666.1,-42.78 697.44,-33.06"/>
<polygon fill="#63b8ff" stroke="#63b8ff" points="698.78,-36.31 707.3,-30.01 696.71,-29.63 698.78,-36.31"/>
</a>
</g>
</g>
<!-- Node8 -->
<g id="Node000008" class="node">
<title>Node8</title>
<g id="a_Node000008"><a xlink:title=" ">
<polygon fill="#e0e0e0" stroke="#999999" points="925,-24.5 824,-24.5 824,-5.5 925,-5.5 925,-24.5"/>
<text text-anchor="middle" x="874.5" y="-12.5" font-family="Helvetica,sans-Serif" font-size="10.00">prismspf/config.h</text>
</a>
</g>
</g>
<!-- Node1&#45;&gt;Node8 -->
<g id="edge7_Node000001_Node000008" class="edge">
<title>Node1&#45;&gt;Node8</title>
<g id="a_edge7_Node000001_Node000008"><a xlink:title=" ">
<path fill="none" stroke="#63b8ff" d="M592.54,-75.41C654.04,-63.53 740.19,-46.46 815.5,-30 819.96,-29.03 824.6,-27.98 829.23,-26.91"/>
<polygon fill="#63b8ff" stroke="#63b8ff" points="830.35,-30.25 839.29,-24.57 828.76,-23.43 830.35,-30.25"/>
</a>
</g>
</g>
</g>
</svg>
