<?xml version="1.0" encoding="UTF-8" standalone="no"?>
<!DOCTYPE svg PUBLIC "-//W3C//DTD SVG 1.1//EN"
 "http://www.w3.org/Graphics/SVG/1.1/DTD/svg11.dtd">
<!-- Generated by graphviz version 2.43.0 (0)
 -->
<!-- Title: /home/runner/work/prisms_phasefield/prisms_phasefield/include/prismspf/core/solution_handler.h Pages: 1 -->
<svg width="2325pt" height="412pt"
 viewBox="0.00 0.00 2325.17 412.00" xmlns="http://www.w3.org/2000/svg" xmlns:xlink="http://www.w3.org/1999/xlink">
<g id="graph0" class="graph" transform="scale(1 1) rotate(0) translate(4 408)">
<title>/home/runner/work/prisms_phasefield/prisms_phasefield/include/prismspf/core/solution_handler.h</title>
<!-- Node1 -->
<g id="Node000001" class="node">
<title>Node1</title>
<g id="a_Node000001"><a xlink:title=" ">
<polygon fill="#999999" stroke="#666666" points="2132.67,-404 1965.67,-404 1965.67,-352 2132.67,-352 2132.67,-404"/>
<text text-anchor="start" x="1973.67" y="-392" font-family="Helvetica,sans-Serif" font-size="10.00">/home/runner/work/prisms</text>
<text text-anchor="start" x="1973.67" y="-381" font-family="Helvetica,sans-Serif" font-size="10.00">_phasefield/prisms_phasefield</text>
<text text-anchor="start" x="1973.67" y="-370" font-family="Helvetica,sans-Serif" font-size="10.00">/include/prismspf/core/solution</text>
<text text-anchor="middle" x="2049.17" y="-359" font-family="Helvetica,sans-Serif" font-size="10.00">_handler.h</text>
</a>
</g>
</g>
<!-- Node2 -->
<g id="Node000002" class="node">
<title>Node2</title>
<g id="a_Node000002"><a xlink:href="grid__refiner__context_8h.html" target="_top" xlink:title=" ">
<polygon fill="white" stroke="#666666" points="536.17,-316 372.17,-316 372.17,-264 536.17,-264 536.17,-316"/>
<text text-anchor="start" x="380.17" y="-304" font-family="Helvetica,sans-Serif" font-size="10.00">/home/runner/work/prisms</text>
<text text-anchor="start" x="380.17" y="-293" font-family="Helvetica,sans-Serif" font-size="10.00">_phasefield/prisms_phasefield</text>
<text text-anchor="start" x="380.17" y="-282" font-family="Helvetica,sans-Serif" font-size="10.00">/include/prismspf/core/grid</text>
<text text-anchor="middle" x="454.17" y="-271" font-family="Helvetica,sans-Serif" font-size="10.00">_refiner_context.h</text>
</a>
</g>
</g>
<!-- Node1&#45;&gt;Node2 -->
<g id="edge1_Node000001_Node000002" class="edge">
<title>Node1&#45;&gt;Node2</title>
<g id="a_edge1_Node000001_Node000002"><a xlink:title=" ">
<path fill="none" stroke="#63b8ff" d="M1955.31,-372.86C1750.46,-363.71 1247.88,-340.6 827.17,-316 727.06,-310.15 611.93,-302.25 536.37,-296.91"/>
<polygon fill="#63b8ff" stroke="#63b8ff" points="1955.28,-376.36 1965.43,-373.31 1955.6,-369.37 1955.28,-376.36"/>
</a>
</g>
</g>
<!-- Node4 -->
<g id="Node000004" class="node">
<title>Node4</title>
<g id="a_Node000004"><a xlink:href="pde__problem_8cc.html" target="_top" xlink:title=" ">
<polygon fill="white" stroke="#666666" points="183.17,-46.5 19.17,-46.5 19.17,-5.5 183.17,-5.5 183.17,-46.5"/>
<text text-anchor="start" x="27.17" y="-34.5" font-family="Helvetica,sans-Serif" font-size="10.00">/home/runner/work/prisms</text>
<text text-anchor="start" x="27.17" y="-23.5" font-family="Helvetica,sans-Serif" font-size="10.00">_phasefield/prisms_phasefield</text>
<text text-anchor="middle" x="101.17" y="-12.5" font-family="Helvetica,sans-Serif" font-size="10.00">/src/core/pde_problem.cc</text>
</a>
</g>
</g>
<!-- Node1&#45;&gt;Node4 -->
<g id="edge43_Node000001_Node000004" class="edge">
<title>Node1&#45;&gt;Node4</title>
<g id="a_edge43_Node000001_Node000004"><a xlink:title=" ">
<path fill="none" stroke="#63b8ff" d="M1955.4,-375.43C1623.92,-369.63 518.94,-348.06 363.17,-316 190.68,-280.5 90.15,-295.86 8.17,-140 -2.59,-119.55 -2.81,-108.34 8.17,-88 17.89,-69.99 35.51,-56.44 52.81,-46.74"/>
<polygon fill="#63b8ff" stroke="#63b8ff" points="1955.39,-378.93 1965.45,-375.6 1955.51,-371.93 1955.39,-378.93"/>
</a>
</g>
</g>
<!-- Node5 -->
<g id="Node000005" class="node">
<title>Node5</title>
<g id="a_Node000005"><a xlink:href="solver__context_8h.html" target="_top" xlink:title=" ">
<polygon fill="white" stroke="#666666" points="1008.17,-316 836.17,-316 836.17,-264 1008.17,-264 1008.17,-316"/>
<text text-anchor="start" x="844.17" y="-304" font-family="Helvetica,sans-Serif" font-size="10.00">/home/runner/work/prisms</text>
<text text-anchor="start" x="844.17" y="-293" font-family="Helvetica,sans-Serif" font-size="10.00">_phasefield/prisms_phasefield</text>
<text text-anchor="start" x="844.17" y="-282" font-family="Helvetica,sans-Serif" font-size="10.00">/include/prismspf/solvers/solver</text>
<text text-anchor="middle" x="922.17" y="-271" font-family="Helvetica,sans-Serif" font-size="10.00">_context.h</text>
</a>
</g>
</g>
<!-- Node1&#45;&gt;Node5 -->
<g id="edge4_Node000001_Node000005" class="edge">
<title>Node1&#45;&gt;Node5</title>
<g id="a_edge4_Node000001_Node000005"><a xlink:title=" ">
<path fill="none" stroke="#63b8ff" d="M1955.39,-369.84C1740.63,-353.46 1215.75,-313.4 1008.43,-297.58"/>
<polygon fill="#63b8ff" stroke="#63b8ff" points="1955.14,-373.34 1965.38,-370.61 1955.67,-366.36 1955.14,-373.34"/>
</a>
</g>
</g>
<!-- Node10 -->
<g id="Node000010" class="node">
<title>Node10</title>
<g id="a_Node000010"><a xlink:href="linear__solver__gmg_8cc.html" target="_top" xlink:title=" ">
<polygon fill="white" stroke="#666666" points="2058.67,-46.5 1879.67,-46.5 1879.67,-5.5 2058.67,-5.5 2058.67,-46.5"/>
<text text-anchor="start" x="1887.67" y="-34.5" font-family="Helvetica,sans-Serif" font-size="10.00">/home/runner/work/prisms</text>
<text text-anchor="start" x="1887.67" y="-23.5" font-family="Helvetica,sans-Serif" font-size="10.00">_phasefield/prisms_phasefield</text>
<text text-anchor="middle" x="1969.17" y="-12.5" font-family="Helvetica,sans-Serif" font-size="10.00">/src/solvers/linear_solver_gmg.cc</text>
</a>
</g>
</g>
<!-- Node1&#45;&gt;Node10 -->
<g id="edge46_Node000001_Node000010" class="edge">
<title>Node1&#45;&gt;Node10</title>
<g id="a_edge46_Node000001_Node000010"><a xlink:title=" ">
<path fill="none" stroke="#63b8ff" d="M2084.37,-344.08C2091.23,-335.65 2097.45,-326.09 2101.17,-316 2136.2,-220.91 2155.76,-173.37 2101.17,-88 2088.93,-68.86 2068.98,-55.64 2048.25,-46.54"/>
<polygon fill="#63b8ff" stroke="#63b8ff" points="2081.58,-341.96 2077.65,-351.79 2086.86,-346.55 2081.58,-341.96"/>
</a>
</g>
</g>
<!-- Node17 -->
<g id="Node000017" class="node">
<title>Node17</title>
<g id="a_Node000017"><a xlink:href="linear__solver__identity_8cc.html" target="_top" xlink:title=" ">
<polygon fill="white" stroke="#666666" points="1819.17,-52 1655.17,-52 1655.17,0 1819.17,0 1819.17,-52"/>
<text text-anchor="start" x="1663.17" y="-40" font-family="Helvetica,sans-Serif" font-size="10.00">/home/runner/work/prisms</text>
<text text-anchor="start" x="1663.17" y="-29" font-family="Helvetica,sans-Serif" font-size="10.00">_phasefield/prisms_phasefield</text>
<text text-anchor="start" x="1663.17" y="-18" font-family="Helvetica,sans-Serif" font-size="10.00">/src/solvers/linear_solver</text>
<text text-anchor="middle" x="1737.17" y="-7" font-family="Helvetica,sans-Serif" font-size="10.00">_identity.cc</text>
</a>
</g>
</g>
<!-- Node1&#45;&gt;Node17 -->
<g id="edge47_Node000001_Node000017" class="edge">
<title>Node1&#45;&gt;Node17</title>
<g id="a_edge47_Node000001_Node000017"><a xlink:title=" ">
<path fill="none" stroke="#63b8ff" d="M2053.79,-341.48C2059.57,-280.29 2061.46,-155.15 1992.17,-88 1979.52,-75.74 1888.98,-56.02 1819.35,-42.33"/>
<polygon fill="#63b8ff" stroke="#63b8ff" points="2050.27,-341.47 2052.72,-351.78 2057.24,-342.2 2050.27,-341.47"/>
</a>
</g>
</g>
<!-- Node18 -->
<g id="Node000018" class="node">
<title>Node18</title>
<g id="a_Node000018"><a xlink:href="linear__solver__base_8cc.html" target="_top" xlink:title=" ">
<polygon fill="white" stroke="#666666" points="1983.17,-134.5 1803.17,-134.5 1803.17,-93.5 1983.17,-93.5 1983.17,-134.5"/>
<text text-anchor="start" x="1811.17" y="-122.5" font-family="Helvetica,sans-Serif" font-size="10.00">/home/runner/work/prisms</text>
<text text-anchor="start" x="1811.17" y="-111.5" font-family="Helvetica,sans-Serif" font-size="10.00">_phasefield/prisms_phasefield</text>
<text text-anchor="middle" x="1893.17" y="-100.5" font-family="Helvetica,sans-Serif" font-size="10.00">/src/solvers/linear_solver_base.cc</text>
</a>
</g>
</g>
<!-- Node1&#45;&gt;Node18 -->
<g id="edge45_Node000001_Node000018" class="edge">
<title>Node1&#45;&gt;Node18</title>
<g id="a_edge45_Node000001_Node000018"><a xlink:title=" ">
<path fill="none" stroke="#63b8ff" d="M2041.93,-342.13C2031.83,-299.65 2010.28,-227.24 1972.17,-176 1959.96,-159.59 1942.22,-145.35 1926.65,-134.76"/>
<polygon fill="#63b8ff" stroke="#63b8ff" points="2038.55,-343.03 2044.2,-351.99 2045.37,-341.46 2038.55,-343.03"/>
</a>
</g>
</g>
<!-- Node24 -->
<g id="Node000024" class="node">
<title>Node24</title>
<g id="a_Node000024"><a xlink:href="solution__handler_8cc.html" target="_top" xlink:title=" ">
<polygon fill="white" stroke="#666666" points="2317.17,-310.5 2153.17,-310.5 2153.17,-269.5 2317.17,-269.5 2317.17,-310.5"/>
<text text-anchor="start" x="2161.17" y="-298.5" font-family="Helvetica,sans-Serif" font-size="10.00">/home/runner/work/prisms</text>
<text text-anchor="start" x="2161.17" y="-287.5" font-family="Helvetica,sans-Serif" font-size="10.00">_phasefield/prisms_phasefield</text>
<text text-anchor="middle" x="2235.17" y="-276.5" font-family="Helvetica,sans-Serif" font-size="10.00">/src/core/solution_handler.cc</text>
</a>
</g>
</g>
<!-- Node1&#45;&gt;Node24 -->
<g id="edge44_Node000001_Node000024" class="edge">
<title>Node1&#45;&gt;Node24</title>
<g id="a_edge44_Node000001_Node000024"><a xlink:title=" ">
<path fill="none" stroke="#63b8ff" d="M2112.67,-347.64C2139.16,-335.39 2169.22,-321.49 2192.93,-310.53"/>
<polygon fill="#63b8ff" stroke="#63b8ff" points="2111.07,-344.52 2103.47,-351.89 2114.01,-350.87 2111.07,-344.52"/>
</a>
</g>
</g>
<!-- Node3 -->
<g id="Node000003" class="node">
<title>Node3</title>
<g id="a_Node000003"><a xlink:href="grid__refiner_8h.html" target="_top" xlink:title=" ">
<polygon fill="white" stroke="#666666" points="181.17,-140 17.17,-140 17.17,-88 181.17,-88 181.17,-140"/>
<text text-anchor="start" x="25.17" y="-128" font-family="Helvetica,sans-Serif" font-size="10.00">/home/runner/work/prisms</text>
<text text-anchor="start" x="25.17" y="-117" font-family="Helvetica,sans-Serif" font-size="10.00">_phasefield/prisms_phasefield</text>
<text text-anchor="start" x="25.17" y="-106" font-family="Helvetica,sans-Serif" font-size="10.00">/include/prismspf/core/grid</text>
<text text-anchor="middle" x="99.17" y="-95" font-family="Helvetica,sans-Serif" font-size="10.00">_refiner.h</text>
</a>
</g>
</g>
<!-- Node2&#45;&gt;Node3 -->
<g id="edge2_Node000002_Node000003" class="edge">
<title>Node2&#45;&gt;Node3</title>
<g id="a_edge2_Node000002_Node000003"><a xlink:title=" ">
<path fill="none" stroke="#63b8ff" d="M362.21,-281.6C310.12,-274.05 245.52,-258.8 195.17,-228 159.37,-206.11 130.24,-166.28 113.8,-140.24"/>
<polygon fill="#63b8ff" stroke="#63b8ff" points="361.74,-285.07 372.12,-282.96 362.69,-278.13 361.74,-285.07"/>
</a>
</g>
</g>
<!-- Node3&#45;&gt;Node4 -->
<g id="edge3_Node000003_Node000004" class="edge">
<title>Node3&#45;&gt;Node4</title>
<g id="a_edge3_Node000003_Node000004"><a xlink:title=" ">
<path fill="none" stroke="#63b8ff" d="M99.99,-77.45C100.24,-66.94 100.5,-55.82 100.71,-46.7"/>
<polygon fill="#63b8ff" stroke="#63b8ff" points="96.49,-77.58 99.76,-87.66 103.49,-77.75 96.49,-77.58"/>
</a>
</g>
</g>
<!-- Node5&#45;&gt;Node4 -->
<g id="edge29_Node000005_Node000004" class="edge">
<title>Node5&#45;&gt;Node4</title>
<g id="a_edge29_Node000005_Node000004"><a xlink:title=" ">
<path fill="none" stroke="#63b8ff" d="M825.96,-284.39C687.39,-276.79 439.06,-259.25 355.17,-228 290.82,-204.03 277.33,-187.94 228.17,-140 207.67,-120.02 210.71,-107.93 190.17,-88 173.76,-72.09 152.78,-57.49 135.31,-46.56"/>
<polygon fill="#63b8ff" stroke="#63b8ff" points="825.98,-287.9 836.15,-284.95 826.35,-280.91 825.98,-287.9"/>
</a>
</g>
</g>
<!-- Node6 -->
<g id="Node000006" class="node">
<title>Node6</title>
<g id="a_Node000006"><a xlink:href="nucleation_8h.html" target="_top" xlink:title=" ">
<polygon fill="white" stroke="#666666" points="401.17,-140 237.17,-140 237.17,-88 401.17,-88 401.17,-140"/>
<text text-anchor="start" x="245.17" y="-128" font-family="Helvetica,sans-Serif" font-size="10.00">/home/runner/work/prisms</text>
<text text-anchor="start" x="245.17" y="-117" font-family="Helvetica,sans-Serif" font-size="10.00">_phasefield/prisms_phasefield</text>
<text text-anchor="start" x="245.17" y="-106" font-family="Helvetica,sans-Serif" font-size="10.00">/include/prismspf/nucleation</text>
<text text-anchor="middle" x="319.17" y="-95" font-family="Helvetica,sans-Serif" font-size="10.00">/nucleation.h</text>
</a>
</g>
</g>
<!-- Node5&#45;&gt;Node6 -->
<g id="edge5_Node000005_Node000006" class="edge">
<title>Node5&#45;&gt;Node6</title>
<g id="a_edge5_Node000005_Node000006"><a xlink:title=" ">
<path fill="none" stroke="#63b8ff" d="M825.99,-285.73C699.2,-280.02 484.12,-265.06 415.17,-228 377.75,-207.89 348.69,-166.76 332.75,-140.06"/>
<polygon fill="#63b8ff" stroke="#63b8ff" points="825.95,-289.23 836.09,-286.17 826.25,-282.24 825.95,-289.23"/>
</a>
</g>
</g>
<!-- Node7 -->
<g id="Node000007" class="node">
<title>Node7</title>
<g id="a_Node000007"><a xlink:href="linear__solver__base_8h.html" target="_top" xlink:title=" ">
<polygon fill="white" stroke="#666666" points="1945.17,-228 1775.17,-228 1775.17,-176 1945.17,-176 1945.17,-228"/>
<text text-anchor="start" x="1783.17" y="-216" font-family="Helvetica,sans-Serif" font-size="10.00">/home/runner/work/prisms</text>
<text text-anchor="start" x="1783.17" y="-205" font-family="Helvetica,sans-Serif" font-size="10.00">_phasefield/prisms_phasefield</text>
<text text-anchor="start" x="1783.17" y="-194" font-family="Helvetica,sans-Serif" font-size="10.00">/include/prismspf/solvers/linear</text>
<text text-anchor="middle" x="1860.17" y="-183" font-family="Helvetica,sans-Serif" font-size="10.00">_solver_base.h</text>
</a>
</g>
</g>
<!-- Node5&#45;&gt;Node7 -->
<g id="edge7_Node000005_Node000007" class="edge">
<title>Node5&#45;&gt;Node7</title>
<g id="a_edge7_Node000005_Node000007"><a xlink:title=" ">
<path fill="none" stroke="#63b8ff" d="M1018.59,-287.9C1176.08,-284.8 1497.85,-272.97 1766.17,-228 1769.08,-227.51 1772.04,-226.97 1775.01,-226.39"/>
<polygon fill="#63b8ff" stroke="#63b8ff" points="1018.39,-284.4 1008.46,-288.09 1018.52,-291.4 1018.39,-284.4"/>
</a>
</g>
</g>
<!-- Node9 -->
<g id="Node000009" class="node">
<title>Node9</title>
<g id="a_Node000009"><a xlink:href="solver__handler_8cc.html" target="_top" xlink:title=" ">
<polygon fill="white" stroke="#666666" points="921.17,-46.5 757.17,-46.5 757.17,-5.5 921.17,-5.5 921.17,-46.5"/>
<text text-anchor="start" x="765.17" y="-34.5" font-family="Helvetica,sans-Serif" font-size="10.00">/home/runner/work/prisms</text>
<text text-anchor="start" x="765.17" y="-23.5" font-family="Helvetica,sans-Serif" font-size="10.00">_phasefield/prisms_phasefield</text>
<text text-anchor="middle" x="839.17" y="-12.5" font-family="Helvetica,sans-Serif" font-size="10.00">/src/core/solver_handler.cc</text>
</a>
</g>
</g>
<!-- Node5&#45;&gt;Node9 -->
<g id="edge30_Node000005_Node000009" class="edge">
<title>Node5&#45;&gt;Node9</title>
<g id="a_edge30_Node000005_Node000009"><a xlink:title=" ">
<path fill="none" stroke="#63b8ff" d="M826.5,-274.47C799.27,-265.55 772.37,-251.17 755.17,-228 718.05,-178.01 721.14,-143.08 750.17,-88 759.6,-70.1 776.91,-56.45 793.78,-46.64"/>
<polygon fill="#63b8ff" stroke="#63b8ff" points="825.55,-277.84 836.13,-277.4 827.59,-271.14 825.55,-277.84"/>
</a>
</g>
</g>
<!-- Node5&#45;&gt;Node10 -->
<g id="edge36_Node000005_Node000010" class="edge">
<title>Node5&#45;&gt;Node10</title>
<g id="a_edge36_Node000005_Node000010"><a xlink:title=" ">
<path fill="none" stroke="#63b8ff" d="M1018.86,-286.51C1271.81,-279.57 1936.11,-258.54 1972.17,-228 2020.13,-187.38 2003.44,-149.84 1992.17,-88 1989.55,-73.64 1983.73,-58.26 1978.6,-46.54"/>
<polygon fill="#63b8ff" stroke="#63b8ff" points="1018.48,-283.02 1008.58,-286.79 1018.67,-290.01 1018.48,-283.02"/>
</a>
</g>
</g>
<!-- Node11 -->
<g id="Node000011" class="node">
<title>Node11</title>
<g id="a_Node000011"><a xlink:href="sequential__auxiliary__solver_8cc.html" target="_top" xlink:title=" ">
<polygon fill="white" stroke="#666666" points="1113.17,-52 939.17,-52 939.17,0 1113.17,0 1113.17,-52"/>
<text text-anchor="start" x="947.17" y="-40" font-family="Helvetica,sans-Serif" font-size="10.00">/home/runner/work/prisms</text>
<text text-anchor="start" x="947.17" y="-29" font-family="Helvetica,sans-Serif" font-size="10.00">_phasefield/prisms_phasefield</text>
<text text-anchor="start" x="947.17" y="-18" font-family="Helvetica,sans-Serif" font-size="10.00">/src/solvers/sequential_auxiliary</text>
<text text-anchor="middle" x="1026.17" y="-7" font-family="Helvetica,sans-Serif" font-size="10.00">_solver.cc</text>
</a>
</g>
</g>
<!-- Node5&#45;&gt;Node11 -->
<g id="edge37_Node000005_Node000011" class="edge">
<title>Node5&#45;&gt;Node11</title>
<g id="a_edge37_Node000005_Node000011"><a xlink:title=" ">
<path fill="none" stroke="#63b8ff" d="M827.1,-259.81C813.63,-251.63 801.54,-241.22 793.17,-228 780.8,-208.47 778.93,-194.2 793.17,-176 834.07,-123.7 882.49,-176.18 938.17,-140 942.77,-137.01 982.85,-84.43 1007.31,-52.06"/>
<polygon fill="#63b8ff" stroke="#63b8ff" points="825.69,-263.03 836.13,-264.87 829.12,-256.93 825.69,-263.03"/>
</a>
</g>
</g>
<!-- Node12 -->
<g id="Node000012" class="node">
<title>Node12</title>
<g id="a_Node000012"><a xlink:href="sequential__co__nonlinear__solver_8cc.html" target="_top" xlink:title=" ">
<polygon fill="white" stroke="#666666" points="1295.17,-52 1131.17,-52 1131.17,0 1295.17,0 1295.17,-52"/>
<text text-anchor="start" x="1139.17" y="-40" font-family="Helvetica,sans-Serif" font-size="10.00">/home/runner/work/prisms</text>
<text text-anchor="start" x="1139.17" y="-29" font-family="Helvetica,sans-Serif" font-size="10.00">_phasefield/prisms_phasefield</text>
<text text-anchor="start" x="1139.17" y="-18" font-family="Helvetica,sans-Serif" font-size="10.00">/src/solvers/sequential_co</text>
<text text-anchor="middle" x="1213.17" y="-7" font-family="Helvetica,sans-Serif" font-size="10.00">_nonlinear_solver.cc</text>
</a>
</g>
</g>
<!-- Node5&#45;&gt;Node12 -->
<g id="edge38_Node000005_Node000012" class="edge">
<title>Node5&#45;&gt;Node12</title>
<g id="a_edge38_Node000005_Node000012"><a xlink:title=" ">
<path fill="none" stroke="#63b8ff" d="M854.12,-258.24C842.9,-250.05 832.78,-240.05 826.17,-228 815.04,-207.74 811.9,-194.18 826.17,-176 867.69,-123.08 909.76,-162.44 973.17,-140 1042.85,-115.34 1119.49,-77.19 1166.98,-52.15"/>
<polygon fill="#63b8ff" stroke="#63b8ff" points="852.21,-261.17 862.46,-263.88 856.14,-255.37 852.21,-261.17"/>
</a>
</g>
</g>
<!-- Node13 -->
<g id="Node000013" class="node">
<title>Node13</title>
<g id="a_Node000013"><a xlink:href="sequential__linear__solver_8cc.html" target="_top" xlink:title=" ">
<polygon fill="white" stroke="#666666" points="365.17,-52 201.17,-52 201.17,0 365.17,0 365.17,-52"/>
<text text-anchor="start" x="209.17" y="-40" font-family="Helvetica,sans-Serif" font-size="10.00">/home/runner/work/prisms</text>
<text text-anchor="start" x="209.17" y="-29" font-family="Helvetica,sans-Serif" font-size="10.00">_phasefield/prisms_phasefield</text>
<text text-anchor="start" x="209.17" y="-18" font-family="Helvetica,sans-Serif" font-size="10.00">/src/solvers/sequential_linear</text>
<text text-anchor="middle" x="283.17" y="-7" font-family="Helvetica,sans-Serif" font-size="10.00">_solver.cc</text>
</a>
</g>
</g>
<!-- Node5&#45;&gt;Node13 -->
<g id="edge39_Node000005_Node000013" class="edge">
<title>Node5&#45;&gt;Node13</title>
<g id="a_edge39_Node000005_Node000013"><a xlink:title=" ">
<path fill="none" stroke="#63b8ff" d="M825.91,-283.85C719.77,-276.63 557.12,-260.56 505.17,-228 441.45,-188.06 467.13,-137.08 410.17,-88 393.21,-73.39 372.15,-61.43 352.09,-52.1"/>
<polygon fill="#63b8ff" stroke="#63b8ff" points="825.79,-287.35 836,-284.52 826.25,-280.37 825.79,-287.35"/>
</a>
</g>
</g>
<!-- Node14 -->
<g id="Node000014" class="node">
<title>Node14</title>
<g id="a_Node000014"><a xlink:href="sequential__self__nonlinear__solver_8cc.html" target="_top" xlink:title=" ">
<polygon fill="white" stroke="#666666" points="547.17,-52 383.17,-52 383.17,0 547.17,0 547.17,-52"/>
<text text-anchor="start" x="391.17" y="-40" font-family="Helvetica,sans-Serif" font-size="10.00">/home/runner/work/prisms</text>
<text text-anchor="start" x="391.17" y="-29" font-family="Helvetica,sans-Serif" font-size="10.00">_phasefield/prisms_phasefield</text>
<text text-anchor="start" x="391.17" y="-18" font-family="Helvetica,sans-Serif" font-size="10.00">/src/solvers/sequential_self</text>
<text text-anchor="middle" x="465.17" y="-7" font-family="Helvetica,sans-Serif" font-size="10.00">_nonlinear_solver.cc</text>
</a>
</g>
</g>
<!-- Node5&#45;&gt;Node14 -->
<g id="edge40_Node000005_Node000014" class="edge">
<title>Node5&#45;&gt;Node14</title>
<g id="a_edge40_Node000005_Node000014"><a xlink:title=" ">
<path fill="none" stroke="#63b8ff" d="M825.56,-283.35C730.31,-276.01 593.1,-260.12 551.17,-228 494.21,-184.38 474.48,-95.61 468.05,-52.13"/>
<polygon fill="#63b8ff" stroke="#63b8ff" points="825.56,-286.86 835.79,-284.12 826.08,-279.88 825.56,-286.86"/>
</a>
</g>
</g>
<!-- Node15 -->
<g id="Node000015" class="node">
<title>Node15</title>
<g id="a_Node000015"><a xlink:href="sequential__solver_8cc.html" target="_top" xlink:title=" ">
<polygon fill="white" stroke="#666666" points="739.17,-46.5 565.17,-46.5 565.17,-5.5 739.17,-5.5 739.17,-46.5"/>
<text text-anchor="start" x="573.17" y="-34.5" font-family="Helvetica,sans-Serif" font-size="10.00">/home/runner/work/prisms</text>
<text text-anchor="start" x="573.17" y="-23.5" font-family="Helvetica,sans-Serif" font-size="10.00">_phasefield/prisms_phasefield</text>
<text text-anchor="middle" x="652.17" y="-12.5" font-family="Helvetica,sans-Serif" font-size="10.00">/src/solvers/sequential_solver.cc</text>
</a>
</g>
</g>
<!-- Node5&#45;&gt;Node15 -->
<g id="edge41_Node000005_Node000015" class="edge">
<title>Node5&#45;&gt;Node15</title>
<g id="a_edge41_Node000005_Node000015"><a xlink:title=" ">
<path fill="none" stroke="#63b8ff" d="M825.83,-283.78C730.41,-272.8 589.38,-239.54 524.17,-140 511.5,-120.67 511.83,-107.54 524.17,-88 536.19,-68.95 555.97,-55.73 576.43,-46.6"/>
<polygon fill="#63b8ff" stroke="#63b8ff" points="825.46,-287.26 835.78,-284.87 826.22,-280.3 825.46,-287.26"/>
</a>
</g>
</g>
<!-- Node5&#45;&gt;Node18 -->
<g id="edge35_Node000005_Node000018" class="edge">
<title>Node5&#45;&gt;Node18</title>
<g id="a_edge35_Node000005_Node000018"><a xlink:title=" ">
<path fill="none" stroke="#63b8ff" d="M1018.49,-286.84C1268.75,-280.78 1922.35,-261.75 1954.17,-228 1970.02,-211.18 1963.01,-197.35 1954.17,-176 1947.35,-159.53 1933.69,-145.2 1921.02,-134.56"/>
<polygon fill="#63b8ff" stroke="#63b8ff" points="1018.23,-283.35 1008.32,-287.09 1018.4,-290.35 1018.23,-283.35"/>
</a>
</g>
</g>
<!-- Node19 -->
<g id="Node000019" class="node">
<title>Node19</title>
<g id="a_Node000019"><a xlink:href="concurrent__constant__solver_8cc.html" target="_top" xlink:title=" ">
<polygon fill="white" stroke="#666666" points="1009.17,-228 835.17,-228 835.17,-176 1009.17,-176 1009.17,-228"/>
<text text-anchor="start" x="843.17" y="-216" font-family="Helvetica,sans-Serif" font-size="10.00">/home/runner/work/prisms</text>
<text text-anchor="start" x="843.17" y="-205" font-family="Helvetica,sans-Serif" font-size="10.00">_phasefield/prisms_phasefield</text>
<text text-anchor="start" x="843.17" y="-194" font-family="Helvetica,sans-Serif" font-size="10.00">/src/solvers/concurrent_constant</text>
<text text-anchor="middle" x="922.17" y="-183" font-family="Helvetica,sans-Serif" font-size="10.00">_solver.cc</text>
</a>
</g>
</g>
<!-- Node5&#45;&gt;Node19 -->
<g id="edge31_Node000005_Node000019" class="edge">
<title>Node5&#45;&gt;Node19</title>
<g id="a_edge31_Node000005_Node000019"><a xlink:title=" ">
<path fill="none" stroke="#63b8ff" d="M922.17,-253.56C922.17,-245.04 922.17,-236.1 922.17,-228.16"/>
<polygon fill="#63b8ff" stroke="#63b8ff" points="918.67,-253.66 922.17,-263.66 925.67,-253.66 918.67,-253.66"/>
</a>
</g>
</g>
<!-- Node20 -->
<g id="Node000020" class="node">
<title>Node20</title>
<g id="a_Node000020"><a xlink:href="concurrent__explicit__postprocess__solver_8cc.html" target="_top" xlink:title=" ">
<polygon fill="white" stroke="#666666" points="1195.17,-228 1027.17,-228 1027.17,-176 1195.17,-176 1195.17,-228"/>
<text text-anchor="start" x="1035.17" y="-216" font-family="Helvetica,sans-Serif" font-size="10.00">/home/runner/work/prisms</text>
<text text-anchor="start" x="1035.17" y="-205" font-family="Helvetica,sans-Serif" font-size="10.00">_phasefield/prisms_phasefield</text>
<text text-anchor="start" x="1035.17" y="-194" font-family="Helvetica,sans-Serif" font-size="10.00">/src/solvers/concurrent_explicit</text>
<text text-anchor="middle" x="1111.17" y="-183" font-family="Helvetica,sans-Serif" font-size="10.00">_postprocess_solver.cc</text>
</a>
</g>
</g>
<!-- Node5&#45;&gt;Node20 -->
<g id="edge32_Node000005_Node000020" class="edge">
<title>Node5&#45;&gt;Node20</title>
<g id="a_edge32_Node000005_Node000020"><a xlink:title=" ">
<path fill="none" stroke="#63b8ff" d="M986.5,-259.73C1009.06,-249.46 1034.18,-238.03 1055.92,-228.14"/>
<polygon fill="#63b8ff" stroke="#63b8ff" points="984.99,-256.57 977.34,-263.89 987.89,-262.94 984.99,-256.57"/>
</a>
</g>
</g>
<!-- Node21 -->
<g id="Node000021" class="node">
<title>Node21</title>
<g id="a_Node000021"><a xlink:href="concurrent__explicit__solver_8cc.html" target="_top" xlink:title=" ">
<polygon fill="white" stroke="#666666" points="1381.17,-228 1213.17,-228 1213.17,-176 1381.17,-176 1381.17,-228"/>
<text text-anchor="start" x="1221.17" y="-216" font-family="Helvetica,sans-Serif" font-size="10.00">/home/runner/work/prisms</text>
<text text-anchor="start" x="1221.17" y="-205" font-family="Helvetica,sans-Serif" font-size="10.00">_phasefield/prisms_phasefield</text>
<text text-anchor="start" x="1221.17" y="-194" font-family="Helvetica,sans-Serif" font-size="10.00">/src/solvers/concurrent_explicit</text>
<text text-anchor="middle" x="1297.17" y="-183" font-family="Helvetica,sans-Serif" font-size="10.00">_solver.cc</text>
</a>
</g>
</g>
<!-- Node5&#45;&gt;Node21 -->
<g id="edge33_Node000005_Node000021" class="edge">
<title>Node5&#45;&gt;Node21</title>
<g id="a_edge33_Node000005_Node000021"><a xlink:title=" ">
<path fill="none" stroke="#63b8ff" d="M1018.22,-269.46C1072.88,-258.03 1142.53,-242.94 1204.17,-228 1207.09,-227.29 1210.06,-226.56 1213.06,-225.81"/>
<polygon fill="#63b8ff" stroke="#63b8ff" points="1017.26,-266.08 1008.19,-271.55 1018.69,-272.93 1017.26,-266.08"/>
</a>
</g>
</g>
<!-- Node22 -->
<g id="Node000022" class="node">
<title>Node22</title>
<g id="a_Node000022"><a xlink:href="concurrent__solver_8cc.html" target="_top" xlink:title=" ">
<polygon fill="white" stroke="#666666" points="1574.67,-222.5 1399.67,-222.5 1399.67,-181.5 1574.67,-181.5 1574.67,-222.5"/>
<text text-anchor="start" x="1407.67" y="-210.5" font-family="Helvetica,sans-Serif" font-size="10.00">/home/runner/work/prisms</text>
<text text-anchor="start" x="1407.67" y="-199.5" font-family="Helvetica,sans-Serif" font-size="10.00">_phasefield/prisms_phasefield</text>
<text text-anchor="middle" x="1487.17" y="-188.5" font-family="Helvetica,sans-Serif" font-size="10.00">/src/solvers/concurrent_solver.cc</text>
</a>
</g>
</g>
<!-- Node5&#45;&gt;Node22 -->
<g id="edge34_Node000005_Node000022" class="edge">
<title>Node5&#45;&gt;Node22</title>
<g id="a_edge34_Node000005_Node000022"><a xlink:title=" ">
<path fill="none" stroke="#63b8ff" d="M1018.67,-279.92C1113.68,-270.15 1262.68,-252.64 1390.17,-228 1398.36,-226.42 1406.89,-224.55 1415.35,-222.56"/>
<polygon fill="#63b8ff" stroke="#63b8ff" points="1018.09,-276.46 1008.5,-280.95 1018.8,-283.42 1018.09,-276.46"/>
</a>
</g>
</g>
<!-- Node23 -->
<g id="Node000023" class="node">
<title>Node23</title>
<g id="a_Node000023"><a xlink:href="solver__base_8cc.html" target="_top" xlink:title=" ">
<polygon fill="white" stroke="#666666" points="1757.17,-222.5 1593.17,-222.5 1593.17,-181.5 1757.17,-181.5 1757.17,-222.5"/>
<text text-anchor="start" x="1601.17" y="-210.5" font-family="Helvetica,sans-Serif" font-size="10.00">/home/runner/work/prisms</text>
<text text-anchor="start" x="1601.17" y="-199.5" font-family="Helvetica,sans-Serif" font-size="10.00">_phasefield/prisms_phasefield</text>
<text text-anchor="middle" x="1675.17" y="-188.5" font-family="Helvetica,sans-Serif" font-size="10.00">/src/solvers/solver_base.cc</text>
</a>
</g>
</g>
<!-- Node5&#45;&gt;Node23 -->
<g id="edge42_Node000005_Node000023" class="edge">
<title>Node5&#45;&gt;Node23</title>
<g id="a_edge42_Node000005_Node000023"><a xlink:title=" ">
<path fill="none" stroke="#63b8ff" d="M1018.54,-285.44C1148.05,-279.45 1385.02,-264.24 1584.17,-228 1592.39,-226.5 1600.94,-224.61 1609.38,-222.54"/>
<polygon fill="#63b8ff" stroke="#63b8ff" points="1018.08,-281.96 1008.25,-285.91 1018.4,-288.95 1018.08,-281.96"/>
</a>
</g>
</g>
<!-- Node6&#45;&gt;Node4 -->
<g id="edge6_Node000006_Node000004" class="edge">
<title>Node6&#45;&gt;Node4</title>
<g id="a_edge6_Node000006_Node000004"><a xlink:title=" ">
<path fill="none" stroke="#63b8ff" d="M245.95,-84.12C214.61,-71.75 178.83,-57.64 150.67,-46.53"/>
<polygon fill="#63b8ff" stroke="#63b8ff" points="244.94,-87.48 255.53,-87.89 247.51,-80.97 244.94,-87.48"/>
</a>
</g>
</g>
<!-- Node8 -->
<g id="Node000008" class="node">
<title>Node8</title>
<g id="a_Node000008"><a xlink:href="linear__solver__gmg_8h.html" target="_top" xlink:title=" ">
<polygon fill="white" stroke="#666666" points="929.17,-140 759.17,-140 759.17,-88 929.17,-88 929.17,-140"/>
<text text-anchor="start" x="767.17" y="-128" font-family="Helvetica,sans-Serif" font-size="10.00">/home/runner/work/prisms</text>
<text text-anchor="start" x="767.17" y="-117" font-family="Helvetica,sans-Serif" font-size="10.00">_phasefield/prisms_phasefield</text>
<text text-anchor="start" x="767.17" y="-106" font-family="Helvetica,sans-Serif" font-size="10.00">/include/prismspf/solvers/linear</text>
<text text-anchor="middle" x="844.17" y="-95" font-family="Helvetica,sans-Serif" font-size="10.00">_solver_gmg.h</text>
</a>
</g>
</g>
<!-- Node7&#45;&gt;Node8 -->
<g id="edge8_Node000007_Node000008" class="edge">
<title>Node7&#45;&gt;Node8</title>
<g id="a_edge8_Node000007_Node000008"><a xlink:title=" ">
<path fill="none" stroke="#63b8ff" d="M1764.88,-175.93C1453.17,-125.62 1090.96,-116.61 929.33,-115.14"/>
<polygon fill="#63b8ff" stroke="#63b8ff" points="1764.58,-179.43 1775.02,-177.58 1765.71,-172.52 1764.58,-179.43"/>
</a>
</g>
</g>
<!-- Node7&#45;&gt;Node10 -->
<g id="edge27_Node000007_Node000010" class="edge">
<title>Node7&#45;&gt;Node10</title>
<g id="a_edge27_Node000007_Node000010"><a xlink:title=" ">
<path fill="none" stroke="#63b8ff" d="M1815.14,-168.98C1806.63,-160.6 1798.91,-150.84 1794.17,-140 1784.9,-118.83 1780.78,-106.84 1794.17,-88 1813.83,-60.33 1847,-45.1 1879.22,-36.77"/>
<polygon fill="#63b8ff" stroke="#63b8ff" points="1813.04,-171.81 1822.78,-175.98 1817.77,-166.65 1813.04,-171.81"/>
</a>
</g>
</g>
<!-- Node16 -->
<g id="Node000016" class="node">
<title>Node16</title>
<g id="a_Node000016"><a xlink:href="linear__solver__identity_8h.html" target="_top" xlink:title=" ">
<polygon fill="white" stroke="#666666" points="703.17,-140 533.17,-140 533.17,-88 703.17,-88 703.17,-140"/>
<text text-anchor="start" x="541.17" y="-128" font-family="Helvetica,sans-Serif" font-size="10.00">/home/runner/work/prisms</text>
<text text-anchor="start" x="541.17" y="-117" font-family="Helvetica,sans-Serif" font-size="10.00">_phasefield/prisms_phasefield</text>
<text text-anchor="start" x="541.17" y="-106" font-family="Helvetica,sans-Serif" font-size="10.00">/include/prismspf/solvers/linear</text>
<text text-anchor="middle" x="618.17" y="-95" font-family="Helvetica,sans-Serif" font-size="10.00">_solver_identity.h</text>
</a>
</g>
</g>
<!-- Node7&#45;&gt;Node16 -->
<g id="edge17_Node000007_Node000016" class="edge">
<title>Node7&#45;&gt;Node16</title>
<g id="a_edge17_Node000007_Node000016"><a xlink:title=" ">
<path fill="none" stroke="#63b8ff" d="M1765.07,-176C1317.47,-110.69 1195.92,-189.82 750.17,-140 734.98,-138.3 718.93,-135.84 703.44,-133.11"/>
<polygon fill="#63b8ff" stroke="#63b8ff" points="1764.63,-179.47 1775.04,-177.47 1765.65,-172.54 1764.63,-179.47"/>
</a>
</g>
</g>
<!-- Node7&#45;&gt;Node17 -->
<g id="edge28_Node000007_Node000017" class="edge">
<title>Node7&#45;&gt;Node17</title>
<g id="a_edge28_Node000007_Node000017"><a xlink:title=" ">
<path fill="none" stroke="#63b8ff" d="M1810.81,-169.53C1800,-160.94 1789.36,-150.95 1781.17,-140 1761.24,-113.37 1749.15,-76.56 1742.81,-52.29"/>
<polygon fill="#63b8ff" stroke="#63b8ff" points="1808.99,-172.54 1819.07,-175.81 1813.23,-166.97 1808.99,-172.54"/>
</a>
</g>
</g>
<!-- Node7&#45;&gt;Node18 -->
<g id="edge26_Node000007_Node000018" class="edge">
<title>Node7&#45;&gt;Node18</title>
<g id="a_edge26_Node000007_Node000018"><a xlink:title=" ">
<path fill="none" stroke="#63b8ff" d="M1873.55,-166.11C1877.66,-155.41 1882.03,-144.01 1885.61,-134.7"/>
<polygon fill="#63b8ff" stroke="#63b8ff" points="1870.2,-165.07 1869.89,-175.66 1876.74,-167.58 1870.2,-165.07"/>
</a>
</g>
</g>
<!-- Node8&#45;&gt;Node4 -->
<g id="edge9_Node000008_Node000004" class="edge">
<title>Node8&#45;&gt;Node4</title>
<g id="a_edge9_Node000008_Node000004"><a xlink:title=" ">
<path fill="none" stroke="#63b8ff" d="M748.98,-93.59C736.63,-91.48 724.12,-89.54 712.17,-88 482.4,-58.39 420.55,-90.88 192.17,-52 183.77,-50.57 175.03,-48.69 166.43,-46.6"/>
<polygon fill="#63b8ff" stroke="#63b8ff" points="748.39,-97.04 758.84,-95.32 749.59,-90.14 748.39,-97.04"/>
</a>
</g>
</g>
<!-- Node8&#45;&gt;Node9 -->
<g id="edge10_Node000008_Node000009" class="edge">
<title>Node8&#45;&gt;Node9</title>
<g id="a_edge10_Node000008_Node000009"><a xlink:title=" ">
<path fill="none" stroke="#63b8ff" d="M842.1,-77.45C841.49,-66.94 840.84,-55.82 840.31,-46.7"/>
<polygon fill="#63b8ff" stroke="#63b8ff" points="838.62,-77.88 842.69,-87.66 845.61,-77.48 838.62,-77.88"/>
</a>
</g>
</g>
<!-- Node8&#45;&gt;Node10 -->
<g id="edge11_Node000008_Node000010" class="edge">
<title>Node8&#45;&gt;Node10</title>
<g id="a_edge11_Node000008_Node000010"><a xlink:title=" ">
<path fill="none" stroke="#63b8ff" d="M939.37,-110.69C1115.4,-105.62 1503.48,-90.72 1828.17,-52 1844.83,-50.01 1862.51,-47.34 1879.51,-44.47"/>
<polygon fill="#63b8ff" stroke="#63b8ff" points="939.25,-107.19 929.36,-110.97 939.45,-114.19 939.25,-107.19"/>
</a>
</g>
</g>
<!-- Node8&#45;&gt;Node11 -->
<g id="edge12_Node000008_Node000011" class="edge">
<title>Node8&#45;&gt;Node11</title>
<g id="a_edge12_Node000008_Node000011"><a xlink:title=" ">
<path fill="none" stroke="#63b8ff" d="M906.41,-83.59C928.06,-73.36 952.12,-61.99 972.97,-52.14"/>
<polygon fill="#63b8ff" stroke="#63b8ff" points="904.84,-80.46 897.3,-87.89 907.83,-86.79 904.84,-80.46"/>
</a>
</g>
</g>
<!-- Node8&#45;&gt;Node12 -->
<g id="edge13_Node000008_Node000012" class="edge">
<title>Node8&#45;&gt;Node12</title>
<g id="a_edge13_Node000008_Node000012"><a xlink:title=" ">
<path fill="none" stroke="#63b8ff" d="M939.17,-93.43C993.02,-82.03 1061.54,-66.97 1122.17,-52 1125.03,-51.29 1127.94,-50.56 1130.88,-49.81"/>
<polygon fill="#63b8ff" stroke="#63b8ff" points="938.35,-90.03 929.29,-95.52 939.8,-96.88 938.35,-90.03"/>
</a>
</g>
</g>
<!-- Node8&#45;&gt;Node13 -->
<g id="edge14_Node000008_Node000013" class="edge">
<title>Node8&#45;&gt;Node13</title>
<g id="a_edge14_Node000008_Node000013"><a xlink:title=" ">
<path fill="none" stroke="#63b8ff" d="M749.21,-94.06C736.77,-91.86 724.18,-89.77 712.17,-88 562.72,-65.93 522.6,-80.1 374.17,-52 371.27,-51.45 368.33,-50.86 365.37,-50.22"/>
<polygon fill="#63b8ff" stroke="#63b8ff" points="748.67,-97.52 759.13,-95.85 749.91,-90.63 748.67,-97.52"/>
</a>
</g>
</g>
<!-- Node8&#45;&gt;Node14 -->
<g id="edge15_Node000008_Node000014" class="edge">
<title>Node8&#45;&gt;Node14</title>
<g id="a_edge15_Node000008_Node000014"><a xlink:title=" ">
<path fill="none" stroke="#63b8ff" d="M749.16,-94.35C692.87,-82.94 620.23,-67.57 556.17,-52 553.3,-51.3 550.39,-50.58 547.45,-49.84"/>
<polygon fill="#63b8ff" stroke="#63b8ff" points="748.62,-97.82 759.12,-96.37 750.01,-90.96 748.62,-97.82"/>
</a>
</g>
</g>
<!-- Node8&#45;&gt;Node15 -->
<g id="edge16_Node000008_Node000015" class="edge">
<title>Node8&#45;&gt;Node15</title>
<g id="a_edge16_Node000008_Node000015"><a xlink:title=" ">
<path fill="none" stroke="#63b8ff" d="M778.97,-83.8C751.54,-71.51 720.35,-57.54 695.77,-46.53"/>
<polygon fill="#63b8ff" stroke="#63b8ff" points="777.56,-87 788.12,-87.89 780.42,-80.61 777.56,-87"/>
</a>
</g>
</g>
<!-- Node16&#45;&gt;Node4 -->
<g id="edge18_Node000016_Node000004" class="edge">
<title>Node16&#45;&gt;Node4</title>
<g id="a_edge18_Node000016_Node000004"><a xlink:title=" ">
<path fill="none" stroke="#63b8ff" d="M522.77,-100.76C417.08,-86.95 253.46,-64.76 192.17,-52 184.47,-50.4 176.46,-48.52 168.52,-46.52"/>
<polygon fill="#63b8ff" stroke="#63b8ff" points="522.45,-104.25 532.82,-102.07 523.35,-97.31 522.45,-104.25"/>
</a>
</g>
</g>
<!-- Node16&#45;&gt;Node9 -->
<g id="edge19_Node000016_Node000009" class="edge">
<title>Node16&#45;&gt;Node9</title>
<g id="a_edge19_Node000016_Node000009"><a xlink:title=" ">
<path fill="none" stroke="#63b8ff" d="M692.39,-84.12C724.16,-71.75 760.44,-57.64 788.98,-46.53"/>
<polygon fill="#63b8ff" stroke="#63b8ff" points="690.73,-81.01 682.68,-87.89 693.27,-87.53 690.73,-81.01"/>
</a>
</g>
</g>
<!-- Node16&#45;&gt;Node11 -->
<g id="edge21_Node000016_Node000011" class="edge">
<title>Node16&#45;&gt;Node11</title>
<g id="a_edge21_Node000016_Node000011"><a xlink:title=" ">
<path fill="none" stroke="#63b8ff" d="M713.56,-94.66C797.35,-78.49 909.13,-56.79 930.17,-52 933.11,-51.33 936.09,-50.64 939.1,-49.92"/>
<polygon fill="#63b8ff" stroke="#63b8ff" points="712.64,-91.27 703.48,-96.6 713.97,-98.14 712.64,-91.27"/>
</a>
</g>
</g>
<!-- Node16&#45;&gt;Node12 -->
<g id="edge22_Node000016_Node000012" class="edge">
<title>Node16&#45;&gt;Node12</title>
<g id="a_edge22_Node000016_Node000012"><a xlink:title=" ">
<path fill="none" stroke="#63b8ff" d="M713.11,-93.95C725.55,-91.77 738.14,-89.72 750.17,-88 914.6,-64.52 958.81,-82.11 1122.17,-52 1125.07,-51.47 1128.01,-50.88 1130.97,-50.26"/>
<polygon fill="#63b8ff" stroke="#63b8ff" points="712.41,-90.52 703.19,-95.72 713.65,-97.41 712.41,-90.52"/>
</a>
</g>
</g>
<!-- Node16&#45;&gt;Node13 -->
<g id="edge23_Node000016_Node000013" class="edge">
<title>Node16&#45;&gt;Node13</title>
<g id="a_edge23_Node000016_Node000013"><a xlink:title=" ">
<path fill="none" stroke="#63b8ff" d="M523.28,-89.82C478.06,-78.63 423.25,-64.88 374.17,-52 371.31,-51.25 368.41,-50.49 365.48,-49.71"/>
<polygon fill="#63b8ff" stroke="#63b8ff" points="522.52,-93.24 533.07,-92.24 524.2,-86.44 522.52,-93.24"/>
</a>
</g>
</g>
<!-- Node16&#45;&gt;Node14 -->
<g id="edge24_Node000016_Node000014" class="edge">
<title>Node16&#45;&gt;Node14</title>
<g id="a_edge24_Node000016_Node000014"><a xlink:title=" ">
<path fill="none" stroke="#63b8ff" d="M564.37,-82.76C546.56,-72.75 526.94,-61.72 509.89,-52.14"/>
<polygon fill="#63b8ff" stroke="#63b8ff" points="563.07,-86.05 573.5,-87.89 566.5,-79.94 563.07,-86.05"/>
</a>
</g>
</g>
<!-- Node16&#45;&gt;Node15 -->
<g id="edge25_Node000016_Node000015" class="edge">
<title>Node16&#45;&gt;Node15</title>
<g id="a_edge25_Node000016_Node000015"><a xlink:title=" ">
<path fill="none" stroke="#63b8ff" d="M631.96,-78.11C636.19,-67.41 640.7,-56.01 644.38,-46.7"/>
<polygon fill="#63b8ff" stroke="#63b8ff" points="628.61,-77.08 628.18,-87.66 635.12,-79.65 628.61,-77.08"/>
</a>
</g>
</g>
<!-- Node16&#45;&gt;Node17 -->
<g id="edge20_Node000016_Node000017" class="edge">
<title>Node16&#45;&gt;Node17</title>
<g id="a_edge20_Node000016_Node000017"><a xlink:title=" ">
<path fill="none" stroke="#63b8ff" d="M713.34,-93.5C725.69,-91.41 738.21,-89.5 750.17,-88 794.72,-82.43 1425.87,-45.21 1654.9,-31.8"/>
<polygon fill="#63b8ff" stroke="#63b8ff" points="712.73,-90.06 703.48,-95.22 713.93,-96.95 712.73,-90.06"/>
</a>
</g>
</g>
</g>
</svg>
