<?xml version="1.0" encoding="UTF-8" standalone="no"?>
<!DOCTYPE svg PUBLIC "-//W3C//DTD SVG 1.1//EN"
 "http://www.w3.org/Graphics/SVG/1.1/DTD/svg11.dtd">
<!-- Generated by graphviz version 2.43.0 (0)
 -->
<!-- Title: /home/runner/work/prisms_phasefield/prisms_phasefield/include/prismspf/core/solution_output.h Pages: 1 -->
<svg width="552pt" height="137pt"
 viewBox="0.00 0.00 551.50 137.00" xmlns="http://www.w3.org/2000/svg" xmlns:xlink="http://www.w3.org/1999/xlink">
<g id="graph0" class="graph" transform="scale(1 1) rotate(0) translate(4 133)">
<title>/home/runner/work/prisms_phasefield/prisms_phasefield/include/prismspf/core/solution_output.h</title>
<!-- Node1 -->
<g id="Node000001" class="node">
<title>Node1</title>
<g id="a_Node000001"><a xlink:title=" ">
<polygon fill="#999999" stroke="#666666" points="347.5,-129 180.5,-129 180.5,-77 347.5,-77 347.5,-129"/>
<text text-anchor="start" x="188.5" y="-117" font-family="Helvetica,sans-Serif" font-size="10.00">/home/runner/work/prisms</text>
<text text-anchor="start" x="188.5" y="-106" font-family="Helvetica,sans-Serif" font-size="10.00">_phasefield/prisms_phasefield</text>
<text text-anchor="start" x="188.5" y="-95" font-family="Helvetica,sans-Serif" font-size="10.00">/include/prismspf/core/solution</text>
<text text-anchor="middle" x="264" y="-84" font-family="Helvetica,sans-Serif" font-size="10.00">_output.h</text>
</a>
</g>
</g>
<!-- Node2 -->
<g id="Node000002" class="node">
<title>Node2</title>
<g id="a_Node000002"><a xlink:href="pde__problem_8cc.html" target="_top" xlink:title=" ">
<polygon fill="white" stroke="#666666" points="164,-41 0,-41 0,0 164,0 164,-41"/>
<text text-anchor="start" x="8" y="-29" font-family="Helvetica,sans-Serif" font-size="10.00">/home/runner/work/prisms</text>
<text text-anchor="start" x="8" y="-18" font-family="Helvetica,sans-Serif" font-size="10.00">_phasefield/prisms_phasefield</text>
<text text-anchor="middle" x="82" y="-7" font-family="Helvetica,sans-Serif" font-size="10.00">/src/core/pde_problem.cc</text>
</a>
</g>
</g>
<!-- Node1&#45;&gt;Node2 -->
<g id="edge1_Node000001_Node000002" class="edge">
<title>Node1&#45;&gt;Node2</title>
<g id="a_edge1_Node000001_Node000002"><a xlink:title=" ">
<path fill="none" stroke="#63b8ff" d="M198.04,-72.82C174.12,-62.25 147.7,-50.56 126.12,-41.02"/>
<polygon fill="#63b8ff" stroke="#63b8ff" points="196.85,-76.13 207.41,-76.97 199.68,-69.72 196.85,-76.13"/>
</a>
</g>
</g>
<!-- Node3 -->
<g id="Node000003" class="node">
<title>Node3</title>
<g id="a_Node000003"><a xlink:href="solution__output_8cc.html" target="_top" xlink:title=" ">
<polygon fill="white" stroke="#666666" points="346,-41 182,-41 182,0 346,0 346,-41"/>
<text text-anchor="start" x="190" y="-29" font-family="Helvetica,sans-Serif" font-size="10.00">/home/runner/work/prisms</text>
<text text-anchor="start" x="190" y="-18" font-family="Helvetica,sans-Serif" font-size="10.00">_phasefield/prisms_phasefield</text>
<text text-anchor="middle" x="264" y="-7" font-family="Helvetica,sans-Serif" font-size="10.00">/src/core/solution_output.cc</text>
</a>
</g>
</g>
<!-- Node1&#45;&gt;Node3 -->
<g id="edge2_Node000001_Node000003" class="edge">
<title>Node1&#45;&gt;Node3</title>
<g id="a_edge2_Node000001_Node000003"><a xlink:title=" ">
<path fill="none" stroke="#63b8ff" d="M264,-66.87C264,-58.05 264,-48.9 264,-41.15"/>
<polygon fill="#63b8ff" stroke="#63b8ff" points="260.5,-66.97 264,-76.97 267.5,-66.97 260.5,-66.97"/>
</a>
</g>
</g>
<!-- Node4 -->
<g id="Node000004" class="node">
<title>Node4</title>
<g id="a_Node000004"><a xlink:href="linear__solver__gmg_8cc.html" target="_top" xlink:title=" ">
<polygon fill="white" stroke="#666666" points="543.5,-41 364.5,-41 364.5,0 543.5,0 543.5,-41"/>
<text text-anchor="start" x="372.5" y="-29" font-family="Helvetica,sans-Serif" font-size="10.00">/home/runner/work/prisms</text>
<text text-anchor="start" x="372.5" y="-18" font-family="Helvetica,sans-Serif" font-size="10.00">_phasefield/prisms_phasefield</text>
<text text-anchor="middle" x="454" y="-7" font-family="Helvetica,sans-Serif" font-size="10.00">/src/solvers/linear_solver_gmg.cc</text>
</a>
</g>
</g>
<!-- Node1&#45;&gt;Node4 -->
<g id="edge3_Node000001_Node000004" class="edge">
<title>Node1&#45;&gt;Node4</title>
<g id="a_edge3_Node000001_Node000004"><a xlink:title=" ">
<path fill="none" stroke="#63b8ff" d="M332.53,-72.96C357.59,-62.35 385.31,-50.6 407.94,-41.02"/>
<polygon fill="#63b8ff" stroke="#63b8ff" points="330.92,-69.85 323.08,-76.97 333.65,-76.29 330.92,-69.85"/>
</a>
</g>
</g>
</g>
</svg>
