<?xml version="1.0" encoding="UTF-8" standalone="no"?>
<!DOCTYPE svg PUBLIC "-//W3C//DTD SVG 1.1//EN"
 "http://www.w3.org/Graphics/SVG/1.1/DTD/svg11.dtd">
<!-- Generated by graphviz version 2.43.0 (0)
 -->
<!-- Title: /home/runner/work/prisms_phasefield/prisms_phasefield/include/prismspf/solvers/solver_context.h Pages: 1 -->
<svg width="2280pt" height="324pt"
 viewBox="0.00 0.00 2280.00 324.00" xmlns="http://www.w3.org/2000/svg" xmlns:xlink="http://www.w3.org/1999/xlink">
<g id="graph0" class="graph" transform="scale(1 1) rotate(0) translate(4 320)">
<title>/home/runner/work/prisms_phasefield/prisms_phasefield/include/prismspf/solvers/solver_context.h</title>
<!-- Node1 -->
<g id="Node000001" class="node">
<title>Node1</title>
<g id="a_Node000001"><a xlink:title=" ">
<polygon fill="#999999" stroke="#666666" points="1313,-316 1141,-316 1141,-264 1313,-264 1313,-316"/>
<text text-anchor="start" x="1149" y="-304" font-family="Helvetica,sans-Serif" font-size="10.00">/home/runner/work/prisms</text>
<text text-anchor="start" x="1149" y="-293" font-family="Helvetica,sans-Serif" font-size="10.00">_phasefield/prisms_phasefield</text>
<text text-anchor="start" x="1149" y="-282" font-family="Helvetica,sans-Serif" font-size="10.00">/include/prismspf/solvers/solver</text>
<text text-anchor="middle" x="1227" y="-271" font-family="Helvetica,sans-Serif" font-size="10.00">_context.h</text>
</a>
</g>
</g>
<!-- Node2 -->
<g id="Node000002" class="node">
<title>Node2</title>
<g id="a_Node000002"><a xlink:href="nucleation_8h.html" target="_top" xlink:title=" ">
<polygon fill="white" stroke="#666666" points="218,-140 54,-140 54,-88 218,-88 218,-140"/>
<text text-anchor="start" x="62" y="-128" font-family="Helvetica,sans-Serif" font-size="10.00">/home/runner/work/prisms</text>
<text text-anchor="start" x="62" y="-117" font-family="Helvetica,sans-Serif" font-size="10.00">_phasefield/prisms_phasefield</text>
<text text-anchor="start" x="62" y="-106" font-family="Helvetica,sans-Serif" font-size="10.00">/include/prismspf/nucleation</text>
<text text-anchor="middle" x="136" y="-95" font-family="Helvetica,sans-Serif" font-size="10.00">/nucleation.h</text>
</a>
</g>
</g>
<!-- Node1&#45;&gt;Node2 -->
<g id="edge1_Node000001_Node000002" class="edge">
<title>Node1&#45;&gt;Node2</title>
<g id="a_edge1_Node000001_Node000002"><a xlink:title=" ">
<path fill="none" stroke="#63b8ff" d="M1130.47,-289.74C922.33,-290.22 437.81,-284.95 285,-228 234.5,-209.18 186.84,-167.25 159.57,-140.1"/>
<polygon fill="#63b8ff" stroke="#63b8ff" points="1130.78,-293.24 1140.77,-289.72 1130.76,-286.24 1130.78,-293.24"/>
</a>
</g>
</g>
<!-- Node3 -->
<g id="Node000003" class="node">
<title>Node3</title>
<g id="a_Node000003"><a xlink:href="pde__problem_8cc.html" target="_top" xlink:title=" ">
<polygon fill="white" stroke="#666666" points="164,-46.5 0,-46.5 0,-5.5 164,-5.5 164,-46.5"/>
<text text-anchor="start" x="8" y="-34.5" font-family="Helvetica,sans-Serif" font-size="10.00">/home/runner/work/prisms</text>
<text text-anchor="start" x="8" y="-23.5" font-family="Helvetica,sans-Serif" font-size="10.00">_phasefield/prisms_phasefield</text>
<text text-anchor="middle" x="82" y="-12.5" font-family="Helvetica,sans-Serif" font-size="10.00">/src/core/pde_problem.cc</text>
</a>
</g>
</g>
<!-- Node1&#45;&gt;Node3 -->
<g id="edge25_Node000001_Node000003" class="edge">
<title>Node1&#45;&gt;Node3</title>
<g id="a_edge25_Node000001_Node000003"><a xlink:title=" ">
<path fill="none" stroke="#63b8ff" d="M1130.64,-284.82C965.78,-276.96 636.59,-258.04 525,-228 383.7,-189.97 360.69,-147.5 227,-88 194.81,-73.68 158.25,-58.3 129.89,-46.57"/>
<polygon fill="#63b8ff" stroke="#63b8ff" points="1130.63,-288.32 1140.78,-285.3 1130.96,-281.33 1130.63,-288.32"/>
</a>
</g>
</g>
<!-- Node4 -->
<g id="Node000004" class="node">
<title>Node4</title>
<g id="a_Node000004"><a xlink:href="linear__solver__base_8h.html" target="_top" xlink:title=" ">
<polygon fill="white" stroke="#666666" points="962,-228 792,-228 792,-176 962,-176 962,-228"/>
<text text-anchor="start" x="800" y="-216" font-family="Helvetica,sans-Serif" font-size="10.00">/home/runner/work/prisms</text>
<text text-anchor="start" x="800" y="-205" font-family="Helvetica,sans-Serif" font-size="10.00">_phasefield/prisms_phasefield</text>
<text text-anchor="start" x="800" y="-194" font-family="Helvetica,sans-Serif" font-size="10.00">/include/prismspf/solvers/linear</text>
<text text-anchor="middle" x="877" y="-183" font-family="Helvetica,sans-Serif" font-size="10.00">_solver_base.h</text>
</a>
</g>
</g>
<!-- Node1&#45;&gt;Node4 -->
<g id="edge3_Node000001_Node000004" class="edge">
<title>Node1&#45;&gt;Node4</title>
<g id="a_edge3_Node000001_Node000004"><a xlink:title=" ">
<path fill="none" stroke="#63b8ff" d="M1131.21,-265.46C1078.33,-252.47 1013.22,-236.47 962.13,-223.92"/>
<polygon fill="#63b8ff" stroke="#63b8ff" points="1130.39,-268.86 1140.93,-267.85 1132.06,-262.07 1130.39,-268.86"/>
</a>
</g>
</g>
<!-- Node6 -->
<g id="Node000006" class="node">
<title>Node6</title>
<g id="a_Node000006"><a xlink:href="solver__handler_8cc.html" target="_top" xlink:title=" ">
<polygon fill="white" stroke="#666666" points="528,-46.5 364,-46.5 364,-5.5 528,-5.5 528,-46.5"/>
<text text-anchor="start" x="372" y="-34.5" font-family="Helvetica,sans-Serif" font-size="10.00">/home/runner/work/prisms</text>
<text text-anchor="start" x="372" y="-23.5" font-family="Helvetica,sans-Serif" font-size="10.00">_phasefield/prisms_phasefield</text>
<text text-anchor="middle" x="446" y="-12.5" font-family="Helvetica,sans-Serif" font-size="10.00">/src/core/solver_handler.cc</text>
</a>
</g>
</g>
<!-- Node1&#45;&gt;Node6 -->
<g id="edge26_Node000001_Node000006" class="edge">
<title>Node1&#45;&gt;Node6</title>
<g id="a_edge26_Node000001_Node000006"><a xlink:title=" ">
<path fill="none" stroke="#63b8ff" d="M1130.73,-289.63C974.73,-289.05 675.08,-280.81 585,-228 512.53,-185.51 469.01,-88.51 453.01,-46.73"/>
<polygon fill="#63b8ff" stroke="#63b8ff" points="1130.78,-293.13 1140.79,-289.66 1130.8,-286.13 1130.78,-293.13"/>
</a>
</g>
</g>
<!-- Node7 -->
<g id="Node000007" class="node">
<title>Node7</title>
<g id="a_Node000007"><a xlink:href="linear__solver__gmg_8cc.html" target="_top" xlink:title=" ">
<polygon fill="white" stroke="#666666" points="1655.5,-46.5 1476.5,-46.5 1476.5,-5.5 1655.5,-5.5 1655.5,-46.5"/>
<text text-anchor="start" x="1484.5" y="-34.5" font-family="Helvetica,sans-Serif" font-size="10.00">/home/runner/work/prisms</text>
<text text-anchor="start" x="1484.5" y="-23.5" font-family="Helvetica,sans-Serif" font-size="10.00">_phasefield/prisms_phasefield</text>
<text text-anchor="middle" x="1566" y="-12.5" font-family="Helvetica,sans-Serif" font-size="10.00">/src/solvers/linear_solver_gmg.cc</text>
</a>
</g>
</g>
<!-- Node1&#45;&gt;Node7 -->
<g id="edge32_Node000001_Node000007" class="edge">
<title>Node1&#45;&gt;Node7</title>
<g id="a_edge32_Node000001_Node000007"><a xlink:title=" ">
<path fill="none" stroke="#63b8ff" d="M1256.58,-256.42C1278.73,-232.86 1310.38,-200.91 1341,-176 1404.78,-124.11 1486.86,-73.34 1532.17,-46.54"/>
<polygon fill="#63b8ff" stroke="#63b8ff" points="1254,-254.06 1249.73,-263.76 1259.12,-258.84 1254,-254.06"/>
</a>
</g>
</g>
<!-- Node8 -->
<g id="Node000008" class="node">
<title>Node8</title>
<g id="a_Node000008"><a xlink:href="sequential__auxiliary__solver_8cc.html" target="_top" xlink:title=" ">
<polygon fill="white" stroke="#666666" points="720,-52 546,-52 546,0 720,0 720,-52"/>
<text text-anchor="start" x="554" y="-40" font-family="Helvetica,sans-Serif" font-size="10.00">/home/runner/work/prisms</text>
<text text-anchor="start" x="554" y="-29" font-family="Helvetica,sans-Serif" font-size="10.00">_phasefield/prisms_phasefield</text>
<text text-anchor="start" x="554" y="-18" font-family="Helvetica,sans-Serif" font-size="10.00">/src/solvers/sequential_auxiliary</text>
<text text-anchor="middle" x="633" y="-7" font-family="Helvetica,sans-Serif" font-size="10.00">_solver.cc</text>
</a>
</g>
</g>
<!-- Node1&#45;&gt;Node8 -->
<g id="edge33_Node000001_Node000008" class="edge">
<title>Node1&#45;&gt;Node8</title>
<g id="a_edge33_Node000001_Node000008"><a xlink:title=" ">
<path fill="none" stroke="#63b8ff" d="M1130.62,-283.61C957.65,-271.61 606.24,-235.73 539,-140 525.72,-121.09 527.97,-108.31 539,-88 547.08,-73.13 560.52,-61.32 574.75,-52.21"/>
<polygon fill="#63b8ff" stroke="#63b8ff" points="1130.53,-287.12 1140.74,-284.3 1131,-280.13 1130.53,-287.12"/>
</a>
</g>
</g>
<!-- Node9 -->
<g id="Node000009" class="node">
<title>Node9</title>
<g id="a_Node000009"><a xlink:href="sequential__co__nonlinear__solver_8cc.html" target="_top" xlink:title=" ">
<polygon fill="white" stroke="#666666" points="902,-52 738,-52 738,0 902,0 902,-52"/>
<text text-anchor="start" x="746" y="-40" font-family="Helvetica,sans-Serif" font-size="10.00">/home/runner/work/prisms</text>
<text text-anchor="start" x="746" y="-29" font-family="Helvetica,sans-Serif" font-size="10.00">_phasefield/prisms_phasefield</text>
<text text-anchor="start" x="746" y="-18" font-family="Helvetica,sans-Serif" font-size="10.00">/src/solvers/sequential_co</text>
<text text-anchor="middle" x="820" y="-7" font-family="Helvetica,sans-Serif" font-size="10.00">_nonlinear_solver.cc</text>
</a>
</g>
</g>
<!-- Node1&#45;&gt;Node9 -->
<g id="edge34_Node000001_Node000009" class="edge">
<title>Node1&#45;&gt;Node9</title>
<g id="a_edge34_Node000001_Node000009"><a xlink:title=" ">
<path fill="none" stroke="#63b8ff" d="M1218.32,-253.96C1204.79,-202.27 1177.47,-109.36 1151,-88 1067.07,-20.25 1016.52,-74.33 911,-52 908.11,-51.39 905.19,-50.74 902.23,-50.06"/>
<polygon fill="#63b8ff" stroke="#63b8ff" points="1214.95,-254.91 1220.84,-263.72 1221.73,-253.16 1214.95,-254.91"/>
</a>
</g>
</g>
<!-- Node10 -->
<g id="Node000010" class="node">
<title>Node10</title>
<g id="a_Node000010"><a xlink:href="sequential__linear__solver_8cc.html" target="_top" xlink:title=" ">
<polygon fill="white" stroke="#666666" points="1084,-52 920,-52 920,0 1084,0 1084,-52"/>
<text text-anchor="start" x="928" y="-40" font-family="Helvetica,sans-Serif" font-size="10.00">/home/runner/work/prisms</text>
<text text-anchor="start" x="928" y="-29" font-family="Helvetica,sans-Serif" font-size="10.00">_phasefield/prisms_phasefield</text>
<text text-anchor="start" x="928" y="-18" font-family="Helvetica,sans-Serif" font-size="10.00">/src/solvers/sequential_linear</text>
<text text-anchor="middle" x="1002" y="-7" font-family="Helvetica,sans-Serif" font-size="10.00">_solver.cc</text>
</a>
</g>
</g>
<!-- Node1&#45;&gt;Node10 -->
<g id="edge35_Node000001_Node000010" class="edge">
<title>Node1&#45;&gt;Node10</title>
<g id="a_edge35_Node000001_Node000010"><a xlink:title=" ">
<path fill="none" stroke="#63b8ff" d="M1229.34,-253.65C1230.29,-209.43 1225.07,-133.98 1184,-88 1176.7,-79.83 1128.88,-63.96 1084.09,-50.45"/>
<polygon fill="#63b8ff" stroke="#63b8ff" points="1225.84,-253.8 1229,-263.91 1232.83,-254.03 1225.84,-253.8"/>
</a>
</g>
</g>
<!-- Node11 -->
<g id="Node000011" class="node">
<title>Node11</title>
<g id="a_Node000011"><a xlink:href="sequential__self__nonlinear__solver_8cc.html" target="_top" xlink:title=" ">
<polygon fill="white" stroke="#666666" points="1266,-52 1102,-52 1102,0 1266,0 1266,-52"/>
<text text-anchor="start" x="1110" y="-40" font-family="Helvetica,sans-Serif" font-size="10.00">/home/runner/work/prisms</text>
<text text-anchor="start" x="1110" y="-29" font-family="Helvetica,sans-Serif" font-size="10.00">_phasefield/prisms_phasefield</text>
<text text-anchor="start" x="1110" y="-18" font-family="Helvetica,sans-Serif" font-size="10.00">/src/solvers/sequential_self</text>
<text text-anchor="middle" x="1184" y="-7" font-family="Helvetica,sans-Serif" font-size="10.00">_nonlinear_solver.cc</text>
</a>
</g>
</g>
<!-- Node1&#45;&gt;Node11 -->
<g id="edge36_Node000001_Node000011" class="edge">
<title>Node1&#45;&gt;Node11</title>
<g id="a_edge36_Node000001_Node000011"><a xlink:title=" ">
<path fill="none" stroke="#63b8ff" d="M1231.61,-253.91C1235.72,-213.09 1238.81,-144.14 1222,-88 1218.21,-75.33 1211.04,-62.69 1203.94,-52.24"/>
<polygon fill="#63b8ff" stroke="#63b8ff" points="1228.12,-253.58 1230.52,-263.9 1235.08,-254.34 1228.12,-253.58"/>
</a>
</g>
</g>
<!-- Node12 -->
<g id="Node000012" class="node">
<title>Node12</title>
<g id="a_Node000012"><a xlink:href="sequential__solver_8cc.html" target="_top" xlink:title=" ">
<polygon fill="white" stroke="#666666" points="1458,-46.5 1284,-46.5 1284,-5.5 1458,-5.5 1458,-46.5"/>
<text text-anchor="start" x="1292" y="-34.5" font-family="Helvetica,sans-Serif" font-size="10.00">/home/runner/work/prisms</text>
<text text-anchor="start" x="1292" y="-23.5" font-family="Helvetica,sans-Serif" font-size="10.00">_phasefield/prisms_phasefield</text>
<text text-anchor="middle" x="1371" y="-12.5" font-family="Helvetica,sans-Serif" font-size="10.00">/src/solvers/sequential_solver.cc</text>
</a>
</g>
</g>
<!-- Node1&#45;&gt;Node12 -->
<g id="edge37_Node000001_Node000012" class="edge">
<title>Node1&#45;&gt;Node12</title>
<g id="a_edge37_Node000001_Node000012"><a xlink:title=" ">
<path fill="none" stroke="#63b8ff" d="M1240,-254.51C1260.32,-200.96 1298.29,-102.44 1308,-88 1318.45,-72.46 1333.41,-57.78 1346.12,-46.71"/>
<polygon fill="#63b8ff" stroke="#63b8ff" points="1236.69,-253.37 1236.42,-263.96 1243.24,-255.85 1236.69,-253.37"/>
</a>
</g>
</g>
<!-- Node15 -->
<g id="Node000015" class="node">
<title>Node15</title>
<g id="a_Node000015"><a xlink:href="linear__solver__base_8cc.html" target="_top" xlink:title=" ">
<polygon fill="white" stroke="#666666" points="1142,-134.5 962,-134.5 962,-93.5 1142,-93.5 1142,-134.5"/>
<text text-anchor="start" x="970" y="-122.5" font-family="Helvetica,sans-Serif" font-size="10.00">/home/runner/work/prisms</text>
<text text-anchor="start" x="970" y="-111.5" font-family="Helvetica,sans-Serif" font-size="10.00">_phasefield/prisms_phasefield</text>
<text text-anchor="middle" x="1052" y="-100.5" font-family="Helvetica,sans-Serif" font-size="10.00">/src/solvers/linear_solver_base.cc</text>
</a>
</g>
</g>
<!-- Node1&#45;&gt;Node15 -->
<g id="edge31_Node000001_Node000015" class="edge">
<title>Node1&#45;&gt;Node15</title>
<g id="a_edge31_Node000001_Node000015"><a xlink:title=" ">
<path fill="none" stroke="#63b8ff" d="M1188.58,-257.42C1177.81,-248.18 1166.25,-237.91 1156,-228 1123.79,-196.87 1089.07,-157.93 1069,-134.84"/>
<polygon fill="#63b8ff" stroke="#63b8ff" points="1186.37,-260.13 1196.25,-263.94 1190.9,-254.79 1186.37,-260.13"/>
</a>
</g>
</g>
<!-- Node16 -->
<g id="Node000016" class="node">
<title>Node16</title>
<g id="a_Node000016"><a xlink:href="concurrent__constant__solver_8cc.html" target="_top" xlink:title=" ">
<polygon fill="white" stroke="#666666" points="1524,-228 1350,-228 1350,-176 1524,-176 1524,-228"/>
<text text-anchor="start" x="1358" y="-216" font-family="Helvetica,sans-Serif" font-size="10.00">/home/runner/work/prisms</text>
<text text-anchor="start" x="1358" y="-205" font-family="Helvetica,sans-Serif" font-size="10.00">_phasefield/prisms_phasefield</text>
<text text-anchor="start" x="1358" y="-194" font-family="Helvetica,sans-Serif" font-size="10.00">/src/solvers/concurrent_constant</text>
<text text-anchor="middle" x="1437" y="-183" font-family="Helvetica,sans-Serif" font-size="10.00">_solver.cc</text>
</a>
</g>
</g>
<!-- Node1&#45;&gt;Node16 -->
<g id="edge27_Node000001_Node000016" class="edge">
<title>Node1&#45;&gt;Node16</title>
<g id="a_edge27_Node000001_Node000016"><a xlink:title=" ">
<path fill="none" stroke="#63b8ff" d="M1297.82,-260C1323.05,-249.66 1351.24,-238.12 1375.62,-228.14"/>
<polygon fill="#63b8ff" stroke="#63b8ff" points="1296.23,-256.87 1288.31,-263.89 1298.89,-263.34 1296.23,-256.87"/>
</a>
</g>
</g>
<!-- Node17 -->
<g id="Node000017" class="node">
<title>Node17</title>
<g id="a_Node000017"><a xlink:href="concurrent__explicit__postprocess__solver_8cc.html" target="_top" xlink:title=" ">
<polygon fill="white" stroke="#666666" points="1710,-228 1542,-228 1542,-176 1710,-176 1710,-228"/>
<text text-anchor="start" x="1550" y="-216" font-family="Helvetica,sans-Serif" font-size="10.00">/home/runner/work/prisms</text>
<text text-anchor="start" x="1550" y="-205" font-family="Helvetica,sans-Serif" font-size="10.00">_phasefield/prisms_phasefield</text>
<text text-anchor="start" x="1550" y="-194" font-family="Helvetica,sans-Serif" font-size="10.00">/src/solvers/concurrent_explicit</text>
<text text-anchor="middle" x="1626" y="-183" font-family="Helvetica,sans-Serif" font-size="10.00">_postprocess_solver.cc</text>
</a>
</g>
</g>
<!-- Node1&#45;&gt;Node17 -->
<g id="edge28_Node000001_Node000017" class="edge">
<title>Node1&#45;&gt;Node17</title>
<g id="a_edge28_Node000001_Node000017"><a xlink:title=" ">
<path fill="none" stroke="#63b8ff" d="M1322.98,-271.55C1383.45,-260.14 1463.05,-244.36 1533,-228 1535.93,-227.31 1538.91,-226.6 1541.91,-225.87"/>
<polygon fill="#63b8ff" stroke="#63b8ff" points="1322.24,-268.12 1313.06,-273.41 1323.53,-275 1322.24,-268.12"/>
</a>
</g>
</g>
<!-- Node18 -->
<g id="Node000018" class="node">
<title>Node18</title>
<g id="a_Node000018"><a xlink:href="concurrent__explicit__solver_8cc.html" target="_top" xlink:title=" ">
<polygon fill="white" stroke="#666666" points="1896,-228 1728,-228 1728,-176 1896,-176 1896,-228"/>
<text text-anchor="start" x="1736" y="-216" font-family="Helvetica,sans-Serif" font-size="10.00">/home/runner/work/prisms</text>
<text text-anchor="start" x="1736" y="-205" font-family="Helvetica,sans-Serif" font-size="10.00">_phasefield/prisms_phasefield</text>
<text text-anchor="start" x="1736" y="-194" font-family="Helvetica,sans-Serif" font-size="10.00">/src/solvers/concurrent_explicit</text>
<text text-anchor="middle" x="1812" y="-183" font-family="Helvetica,sans-Serif" font-size="10.00">_solver.cc</text>
</a>
</g>
</g>
<!-- Node1&#45;&gt;Node18 -->
<g id="edge29_Node000001_Node000018" class="edge">
<title>Node1&#45;&gt;Node18</title>
<g id="a_edge29_Node000001_Node000018"><a xlink:title=" ">
<path fill="none" stroke="#63b8ff" d="M1323.39,-281.05C1423.04,-271.9 1582.82,-254.61 1719,-228 1721.95,-227.42 1724.95,-226.8 1727.97,-226.15"/>
<polygon fill="#63b8ff" stroke="#63b8ff" points="1322.98,-277.57 1313.34,-281.96 1323.62,-284.54 1322.98,-277.57"/>
</a>
</g>
</g>
<!-- Node19 -->
<g id="Node000019" class="node">
<title>Node19</title>
<g id="a_Node000019"><a xlink:href="concurrent__solver_8cc.html" target="_top" xlink:title=" ">
<polygon fill="white" stroke="#666666" points="2089.5,-222.5 1914.5,-222.5 1914.5,-181.5 2089.5,-181.5 2089.5,-222.5"/>
<text text-anchor="start" x="1922.5" y="-210.5" font-family="Helvetica,sans-Serif" font-size="10.00">/home/runner/work/prisms</text>
<text text-anchor="start" x="1922.5" y="-199.5" font-family="Helvetica,sans-Serif" font-size="10.00">_phasefield/prisms_phasefield</text>
<text text-anchor="middle" x="2002" y="-188.5" font-family="Helvetica,sans-Serif" font-size="10.00">/src/solvers/concurrent_solver.cc</text>
</a>
</g>
</g>
<!-- Node1&#45;&gt;Node19 -->
<g id="edge30_Node000001_Node000019" class="edge">
<title>Node1&#45;&gt;Node19</title>
<g id="a_edge30_Node000001_Node000019"><a xlink:title=" ">
<path fill="none" stroke="#63b8ff" d="M1323.29,-285.26C1455.31,-279.02 1699.56,-263.47 1905,-228 1913.74,-226.49 1922.85,-224.59 1931.83,-222.52"/>
<polygon fill="#63b8ff" stroke="#63b8ff" points="1323.03,-281.77 1313.2,-285.73 1323.36,-288.76 1323.03,-281.77"/>
</a>
</g>
</g>
<!-- Node20 -->
<g id="Node000020" class="node">
<title>Node20</title>
<g id="a_Node000020"><a xlink:href="solver__base_8cc.html" target="_top" xlink:title=" ">
<polygon fill="white" stroke="#666666" points="2272,-222.5 2108,-222.5 2108,-181.5 2272,-181.5 2272,-222.5"/>
<text text-anchor="start" x="2116" y="-210.5" font-family="Helvetica,sans-Serif" font-size="10.00">/home/runner/work/prisms</text>
<text text-anchor="start" x="2116" y="-199.5" font-family="Helvetica,sans-Serif" font-size="10.00">_phasefield/prisms_phasefield</text>
<text text-anchor="middle" x="2190" y="-188.5" font-family="Helvetica,sans-Serif" font-size="10.00">/src/solvers/solver_base.cc</text>
</a>
</g>
</g>
<!-- Node1&#45;&gt;Node20 -->
<g id="edge38_Node000001_Node000020" class="edge">
<title>Node1&#45;&gt;Node20</title>
<g id="a_edge38_Node000001_Node000020"><a xlink:title=" ">
<path fill="none" stroke="#63b8ff" d="M1323.46,-288.47C1485.04,-286.21 1820.14,-275.57 2099,-228 2107.4,-226.57 2116.14,-224.69 2124.74,-222.6"/>
<polygon fill="#63b8ff" stroke="#63b8ff" points="1323.03,-284.98 1313.07,-288.61 1323.12,-291.98 1323.03,-284.98"/>
</a>
</g>
</g>
<!-- Node2&#45;&gt;Node3 -->
<g id="edge2_Node000002_Node000003" class="edge">
<title>Node2&#45;&gt;Node3</title>
<g id="a_edge2_Node000002_Node000003"><a xlink:title=" ">
<path fill="none" stroke="#63b8ff" d="M114.71,-79.09C107.81,-68.11 100.4,-56.3 94.37,-46.7"/>
<polygon fill="#63b8ff" stroke="#63b8ff" points="111.81,-81.05 120.09,-87.66 117.74,-77.33 111.81,-81.05"/>
</a>
</g>
</g>
<!-- Node5 -->
<g id="Node000005" class="node">
<title>Node5</title>
<g id="a_Node000005"><a xlink:href="linear__solver__gmg_8h.html" target="_top" xlink:title=" ">
<polygon fill="white" stroke="#666666" points="906,-140 736,-140 736,-88 906,-88 906,-140"/>
<text text-anchor="start" x="744" y="-128" font-family="Helvetica,sans-Serif" font-size="10.00">/home/runner/work/prisms</text>
<text text-anchor="start" x="744" y="-117" font-family="Helvetica,sans-Serif" font-size="10.00">_phasefield/prisms_phasefield</text>
<text text-anchor="start" x="744" y="-106" font-family="Helvetica,sans-Serif" font-size="10.00">/include/prismspf/solvers/linear</text>
<text text-anchor="middle" x="821" y="-95" font-family="Helvetica,sans-Serif" font-size="10.00">_solver_gmg.h</text>
</a>
</g>
</g>
<!-- Node4&#45;&gt;Node5 -->
<g id="edge4_Node000004_Node000005" class="edge">
<title>Node4&#45;&gt;Node5</title>
<g id="a_edge4_Node000004_Node000005"><a xlink:title=" ">
<path fill="none" stroke="#63b8ff" d="M855.02,-167.24C849.14,-158.22 842.9,-148.63 837.38,-140.16"/>
<polygon fill="#63b8ff" stroke="#63b8ff" points="852.11,-169.19 860.5,-175.66 857.98,-165.37 852.11,-169.19"/>
</a>
</g>
</g>
<!-- Node4&#45;&gt;Node7 -->
<g id="edge23_Node000004_Node000007" class="edge">
<title>Node4&#45;&gt;Node7</title>
<g id="a_edge23_Node000004_Node000007"><a xlink:title=" ">
<path fill="none" stroke="#63b8ff" d="M898.8,-167.05C919.76,-134.64 948.87,-90.39 953,-88 1052.12,-30.68 1353.94,-70.09 1467,-52 1476.1,-50.54 1485.59,-48.65 1494.93,-46.55"/>
<polygon fill="#63b8ff" stroke="#63b8ff" points="895.61,-165.53 893.13,-175.83 901.49,-169.33 895.61,-165.53"/>
</a>
</g>
</g>
<!-- Node13 -->
<g id="Node000013" class="node">
<title>Node13</title>
<g id="a_Node000013"><a xlink:href="linear__solver__identity_8h.html" target="_top" xlink:title=" ">
<polygon fill="white" stroke="#666666" points="718,-140 548,-140 548,-88 718,-88 718,-140"/>
<text text-anchor="start" x="556" y="-128" font-family="Helvetica,sans-Serif" font-size="10.00">/home/runner/work/prisms</text>
<text text-anchor="start" x="556" y="-117" font-family="Helvetica,sans-Serif" font-size="10.00">_phasefield/prisms_phasefield</text>
<text text-anchor="start" x="556" y="-106" font-family="Helvetica,sans-Serif" font-size="10.00">/include/prismspf/solvers/linear</text>
<text text-anchor="middle" x="633" y="-95" font-family="Helvetica,sans-Serif" font-size="10.00">_solver_identity.h</text>
</a>
</g>
</g>
<!-- Node4&#45;&gt;Node13 -->
<g id="edge13_Node000004_Node000013" class="edge">
<title>Node4&#45;&gt;Node13</title>
<g id="a_edge13_Node000004_Node000013"><a xlink:title=" ">
<path fill="none" stroke="#63b8ff" d="M796.26,-172.54C766.55,-162.07 733.14,-150.3 704.32,-140.14"/>
<polygon fill="#63b8ff" stroke="#63b8ff" points="795.17,-175.87 805.77,-175.89 797.5,-169.27 795.17,-175.87"/>
</a>
</g>
</g>
<!-- Node14 -->
<g id="Node000014" class="node">
<title>Node14</title>
<g id="a_Node000014"><a xlink:href="linear__solver__identity_8cc.html" target="_top" xlink:title=" ">
<polygon fill="white" stroke="#666666" points="346,-52 182,-52 182,0 346,0 346,-52"/>
<text text-anchor="start" x="190" y="-40" font-family="Helvetica,sans-Serif" font-size="10.00">/home/runner/work/prisms</text>
<text text-anchor="start" x="190" y="-29" font-family="Helvetica,sans-Serif" font-size="10.00">_phasefield/prisms_phasefield</text>
<text text-anchor="start" x="190" y="-18" font-family="Helvetica,sans-Serif" font-size="10.00">/src/solvers/linear_solver</text>
<text text-anchor="middle" x="264" y="-7" font-family="Helvetica,sans-Serif" font-size="10.00">_identity.cc</text>
</a>
</g>
</g>
<!-- Node4&#45;&gt;Node14 -->
<g id="edge24_Node000004_Node000014" class="edge">
<title>Node4&#45;&gt;Node14</title>
<g id="a_edge24_Node000004_Node000014"><a xlink:title=" ">
<path fill="none" stroke="#63b8ff" d="M781.91,-189.32C713.49,-179.59 619.47,-163.51 539,-140 458.74,-116.55 369.93,-77.53 315.54,-52.03"/>
<polygon fill="#63b8ff" stroke="#63b8ff" points="781.43,-192.78 791.82,-190.71 782.4,-185.85 781.43,-192.78"/>
</a>
</g>
</g>
<!-- Node4&#45;&gt;Node15 -->
<g id="edge22_Node000004_Node000015" class="edge">
<title>Node4&#45;&gt;Node15</title>
<g id="a_edge22_Node000004_Node000015"><a xlink:title=" ">
<path fill="none" stroke="#63b8ff" d="M937.08,-171.48C961.92,-159.27 990.05,-145.44 1012.26,-134.53"/>
<polygon fill="#63b8ff" stroke="#63b8ff" points="935.52,-168.34 928.09,-175.89 938.61,-174.62 935.52,-168.34"/>
</a>
</g>
</g>
<!-- Node5&#45;&gt;Node3 -->
<g id="edge5_Node000005_Node000003" class="edge">
<title>Node5&#45;&gt;Node3</title>
<g id="a_edge5_Node000005_Node000003"><a xlink:title=" ">
<path fill="none" stroke="#63b8ff" d="M725.97,-87.98C481.7,-49.27 413.12,-92.35 173,-52 164.44,-50.56 155.52,-48.65 146.76,-46.51"/>
<polygon fill="#63b8ff" stroke="#63b8ff" points="725.42,-91.44 735.85,-89.58 726.54,-84.53 725.42,-91.44"/>
</a>
</g>
</g>
<!-- Node5&#45;&gt;Node6 -->
<g id="edge6_Node000005_Node000006" class="edge">
<title>Node5&#45;&gt;Node6</title>
<g id="a_edge6_Node000005_Node000006"><a xlink:title=" ">
<path fill="none" stroke="#63b8ff" d="M726,-87.84C641.49,-69.09 617.7,-70.7 537,-52 529.82,-50.34 522.35,-48.48 514.92,-46.56"/>
<polygon fill="#63b8ff" stroke="#63b8ff" points="725.24,-91.26 735.76,-90.04 726.77,-84.43 725.24,-91.26"/>
</a>
</g>
</g>
<!-- Node5&#45;&gt;Node7 -->
<g id="edge7_Node000005_Node000007" class="edge">
<title>Node5&#45;&gt;Node7</title>
<g id="a_edge7_Node000005_Node000007"><a xlink:title=" ">
<path fill="none" stroke="#63b8ff" d="M916.14,-88.63C917.43,-88.41 918.72,-88.2 920,-88 1160.66,-50.02 1226.34,-89.98 1467,-52 1476.19,-50.55 1485.78,-48.64 1495.21,-46.53"/>
<polygon fill="#63b8ff" stroke="#63b8ff" points="915.33,-85.22 906.12,-90.46 916.59,-92.11 915.33,-85.22"/>
</a>
</g>
</g>
<!-- Node5&#45;&gt;Node8 -->
<g id="edge8_Node000005_Node000008" class="edge">
<title>Node5&#45;&gt;Node8</title>
<g id="a_edge8_Node000005_Node000008"><a xlink:title=" ">
<path fill="none" stroke="#63b8ff" d="M757,-83.73C734.57,-73.46 709.58,-62.03 687.95,-52.14"/>
<polygon fill="#63b8ff" stroke="#63b8ff" points="755.57,-86.92 766.12,-87.89 758.48,-80.55 755.57,-86.92"/>
</a>
</g>
</g>
<!-- Node5&#45;&gt;Node9 -->
<g id="edge9_Node000005_Node000009" class="edge">
<title>Node5&#45;&gt;Node9</title>
<g id="a_edge9_Node000005_Node000009"><a xlink:title=" ">
<path fill="none" stroke="#63b8ff" d="M820.59,-77.56C820.49,-69.04 820.38,-60.1 820.29,-52.16"/>
<polygon fill="#63b8ff" stroke="#63b8ff" points="817.09,-77.7 820.71,-87.66 824.09,-77.62 817.09,-77.7"/>
</a>
</g>
</g>
<!-- Node5&#45;&gt;Node10 -->
<g id="edge10_Node000005_Node000010" class="edge">
<title>Node5&#45;&gt;Node10</title>
<g id="a_edge10_Node000005_Node000010"><a xlink:title=" ">
<path fill="none" stroke="#63b8ff" d="M882.9,-83.59C904.43,-73.36 928.36,-61.99 949.1,-52.14"/>
<polygon fill="#63b8ff" stroke="#63b8ff" points="881.37,-80.44 873.84,-87.89 884.37,-86.76 881.37,-80.44"/>
</a>
</g>
</g>
<!-- Node5&#45;&gt;Node11 -->
<g id="edge11_Node000005_Node000011" class="edge">
<title>Node5&#45;&gt;Node11</title>
<g id="a_edge11_Node000005_Node000011"><a xlink:title=" ">
<path fill="none" stroke="#63b8ff" d="M916.19,-88.88C917.46,-88.59 918.74,-88.29 920,-88 996.53,-70.38 1016.65,-70.41 1093,-52 1095.87,-51.31 1098.78,-50.59 1101.72,-49.85"/>
<polygon fill="#63b8ff" stroke="#63b8ff" points="915.2,-85.52 906.27,-91.23 916.8,-92.33 915.2,-85.52"/>
</a>
</g>
</g>
<!-- Node5&#45;&gt;Node12 -->
<g id="edge12_Node000005_Node000012" class="edge">
<title>Node5&#45;&gt;Node12</title>
<g id="a_edge12_Node000005_Node000012"><a xlink:title=" ">
<path fill="none" stroke="#63b8ff" d="M916.15,-88.7C917.44,-88.46 918.72,-88.22 920,-88 1076.19,-60.51 1118.92,-80.07 1275,-52 1283.48,-50.48 1292.3,-48.59 1301.02,-46.55"/>
<polygon fill="#63b8ff" stroke="#63b8ff" points="915.29,-85.3 906.15,-90.66 916.64,-92.17 915.29,-85.3"/>
</a>
</g>
</g>
<!-- Node13&#45;&gt;Node3 -->
<g id="edge14_Node000013_Node000003" class="edge">
<title>Node13&#45;&gt;Node3</title>
<g id="a_edge14_Node000013_Node000003"><a xlink:title=" ">
<path fill="none" stroke="#63b8ff" d="M537.64,-104.18C444.17,-94.65 297.93,-77.32 173,-52 165.29,-50.44 157.28,-48.58 149.34,-46.6"/>
<polygon fill="#63b8ff" stroke="#63b8ff" points="537.34,-107.67 547.64,-105.2 538.05,-100.71 537.34,-107.67"/>
</a>
</g>
</g>
<!-- Node13&#45;&gt;Node6 -->
<g id="edge15_Node000013_Node000006" class="edge">
<title>Node13&#45;&gt;Node6</title>
<g id="a_edge15_Node000013_Node000006"><a xlink:title=" ">
<path fill="none" stroke="#63b8ff" d="M569.15,-83.64C542.52,-71.39 512.3,-57.49 488.47,-46.53"/>
<polygon fill="#63b8ff" stroke="#63b8ff" points="567.86,-86.9 578.41,-87.89 570.79,-80.54 567.86,-86.9"/>
</a>
</g>
</g>
<!-- Node13&#45;&gt;Node8 -->
<g id="edge17_Node000013_Node000008" class="edge">
<title>Node13&#45;&gt;Node8</title>
<g id="a_edge17_Node000013_Node000008"><a xlink:title=" ">
<path fill="none" stroke="#63b8ff" d="M633,-77.56C633,-69.04 633,-60.1 633,-52.16"/>
<polygon fill="#63b8ff" stroke="#63b8ff" points="629.5,-77.66 633,-87.66 636.5,-77.66 629.5,-77.66"/>
</a>
</g>
</g>
<!-- Node13&#45;&gt;Node9 -->
<g id="edge18_Node000013_Node000009" class="edge">
<title>Node13&#45;&gt;Node9</title>
<g id="a_edge18_Node000013_Node000009"><a xlink:title=" ">
<path fill="none" stroke="#63b8ff" d="M696.95,-83.59C719.19,-73.36 743.92,-61.99 765.34,-52.14"/>
<polygon fill="#63b8ff" stroke="#63b8ff" points="695.21,-80.54 687.59,-87.89 698.14,-86.9 695.21,-80.54"/>
</a>
</g>
</g>
<!-- Node13&#45;&gt;Node10 -->
<g id="edge19_Node000013_Node000010" class="edge">
<title>Node13&#45;&gt;Node10</title>
<g id="a_edge19_Node000013_Node000010"><a xlink:title=" ">
<path fill="none" stroke="#63b8ff" d="M728.48,-87.73C809.98,-69.39 833.05,-70.31 911,-52 913.87,-51.33 916.79,-50.62 919.73,-49.9"/>
<polygon fill="#63b8ff" stroke="#63b8ff" points="727.22,-84.43 718.24,-90.06 728.77,-91.25 727.22,-84.43"/>
</a>
</g>
</g>
<!-- Node13&#45;&gt;Node11 -->
<g id="edge20_Node000013_Node000011" class="edge">
<title>Node13&#45;&gt;Node11</title>
<g id="a_edge20_Node000013_Node000011"><a xlink:title=" ">
<path fill="none" stroke="#63b8ff" d="M728.45,-87.88C889.71,-59.81 935.58,-81.15 1093,-52 1095.9,-51.46 1098.84,-50.88 1101.81,-50.25"/>
<polygon fill="#63b8ff" stroke="#63b8ff" points="727.4,-84.51 718.17,-89.7 728.63,-91.4 727.4,-84.51"/>
</a>
</g>
</g>
<!-- Node13&#45;&gt;Node12 -->
<g id="edge21_Node000013_Node000012" class="edge">
<title>Node13&#45;&gt;Node12</title>
<g id="a_edge21_Node000013_Node000012"><a xlink:title=" ">
<path fill="none" stroke="#63b8ff" d="M728.29,-87.94C969.7,-49.59 1037.34,-90.4 1275,-52 1283.93,-50.56 1293.23,-48.66 1302.38,-46.54"/>
<polygon fill="#63b8ff" stroke="#63b8ff" points="727.46,-84.53 718.15,-89.58 728.58,-91.44 727.46,-84.53"/>
</a>
</g>
</g>
<!-- Node13&#45;&gt;Node14 -->
<g id="edge16_Node000013_Node000014" class="edge">
<title>Node13&#45;&gt;Node14</title>
<g id="a_edge16_Node000013_Node000014"><a xlink:title=" ">
<path fill="none" stroke="#63b8ff" d="M537.99,-93.43C484.15,-82.03 415.63,-66.97 355,-52 352.14,-51.29 349.23,-50.56 346.29,-49.81"/>
<polygon fill="#63b8ff" stroke="#63b8ff" points="537.36,-96.88 547.87,-95.52 538.81,-90.03 537.36,-96.88"/>
</a>
</g>
</g>
</g>
</svg>
